<?xml version="1.0" encoding="utf-8"?>
<!-- Generator: Adobe Illustrator 27.5.0, SVG Export Plug-In . SVG Version: 6.00 Build 0)  -->
<svg version="1.1" id="Layer_1" xmlns="http://www.w3.org/2000/svg" xmlns:xlink="http://www.w3.org/1999/xlink" x="0px" y="0px"
	 viewBox="0 0 180 100" style="enable-background:new 0 0 180 100;" xml:space="preserve">
<g>
	<defs>
		<rect id="SVGID_1_" x="0" y="0" width="180" height="100.001"/>
	</defs>
	<clipPath id="SVGID_00000070840755338677743920000013499054410113012630_">
		<use xlink:href="#SVGID_1_"  style="overflow:visible;"/>
	</clipPath>
	<g style="clip-path:url(#SVGID_00000070840755338677743920000013499054410113012630_);">
		<g>
			
				<linearGradient id="SVGID_00000142158970789683490930000014435597753347118721_" gradientUnits="userSpaceOnUse" x1="89.7387" y1="59.0721" x2="89.7387" y2="-13.0185">
				<stop  offset="0" style="stop-color:#F3F9F6"/>
				<stop  offset="0.8328" style="stop-color:#3FC6F1"/>
			</linearGradient>
			
				<rect x="-4.2" y="-12.301" style="fill:url(#SVGID_00000142158970789683490930000014435597753347118721_);" width="187.878" height="71.114"/>
			<path style="fill:#FFFFFF;" d="M185.576,13.251c-9.378,0-17.595,4.485-20.459,10.723c-3.418-1.658-7.783-2.191-11.964-1.171
				c-4.51,1.101-7.746,3.751-8.993,6.892c-3.01-1.085-6.389-1.694-9.961-1.694c-8.958,0-16.709,3.83-20.442,9.4
				c-2.729-1.911-6.407-3.085-10.458-3.085c-5.479,0-10.282,2.146-12.967,5.365c-2.058-7.033-10.497-12.301-20.599-12.301
				c-8.129,0-15.183,3.413-18.698,8.413c-3.614-2.157-8.206-3.449-13.205-3.449c-7.863,0-14.72,3.194-18.343,7.927H19.17
				c-0.872-2.529-3.025-4.675-5.915-6.042c0.748-1.614,1.155-3.346,1.155-5.148c0-8.742-9.556-15.829-21.343-15.829V40.27v4.638
				v15.929h192.509V13.251z"/>
			<g>
				
					<linearGradient id="SVGID_00000145775941998355293210000007071382909596061604_" gradientUnits="userSpaceOnUse" x1="-4.0791" y1="87.5752" x2="183.6767" y2="87.5752">
					<stop  offset="0" style="stop-color:#0074AC"/>
					<stop  offset="1" style="stop-color:#57C8E8"/>
				</linearGradient>
				
					<rect x="-4.079" y="67.478" style="fill:url(#SVGID_00000145775941998355293210000007071382909596061604_);" width="187.756" height="40.195"/>
				<g style="opacity:0.4;">
					<path style="opacity:0.6;fill:#1EB8EB;" d="M20.447,90.491c0,0.381-1.197,0.689-2.674,0.689c-1.476,0-2.673-0.309-2.673-0.689
						c0-0.381,1.196-0.689,2.673-0.689C19.25,89.802,20.447,90.11,20.447,90.491z"/>
					<path style="opacity:0.5;fill:#1EB8EB;" d="M17.773,102.011c0,0.329-0.81,0.596-1.81,0.596s-1.811-0.267-1.811-0.596
						c0-0.328,0.811-0.595,1.811-0.595S17.773,101.683,17.773,102.011z"/>
					<path style="opacity:0.4;fill:#1EB8EB;" d="M42.008,97.184c0,0.225-0.547,0.406-1.224,0.406c-0.675,0-1.222-0.182-1.222-0.406
						c0-0.224,0.547-0.405,1.222-0.405C41.461,96.778,42.008,96.96,42.008,97.184z"/>
					<path style="opacity:0.4;fill:#1EB8EB;" d="M114.997,94.408c0,0.224-0.548,0.405-1.223,0.405c-0.676,0-1.224-0.182-1.224-0.405
						c0-0.225,0.548-0.406,1.224-0.406C114.449,94.002,114.997,94.184,114.997,94.408z"/>
					<ellipse style="opacity:0.5;fill:#1EB8EB;" cx="57.558" cy="97.144" rx="2.143" ry="0.771"/>
					<path style="opacity:0.5;fill:#1EB8EB;" d="M121.518,95.055c0,0.426-0.96,0.771-2.143,0.771c-1.184,0-2.144-0.345-2.144-0.771
						c0-0.426,0.96-0.771,2.144-0.771C120.558,94.284,121.518,94.629,121.518,95.055z"/>
					<path style="opacity:0.6;fill:#1EB8EB;" d="M58.676,102.207c0,0.221-0.433,0.399-0.967,0.399c-0.534,0-0.968-0.179-0.968-0.399
						c0-0.22,0.434-0.399,0.968-0.399C58.243,101.808,58.676,101.987,58.676,102.207z"/>
					<path style="opacity:0.4;fill:#1EB8EB;" d="M72.102,95.48c0,0.18-0.323,0.324-0.722,0.324c-0.398,0-0.721-0.145-0.721-0.324
						c0-0.179,0.322-0.324,0.721-0.324C71.778,95.156,72.102,95.302,72.102,95.48z"/>
					<path style="opacity:0.6;fill:#1EB8EB;" d="M89.11,95.055c0,0.235-0.56,0.426-1.251,0.426c-0.691,0-1.252-0.19-1.252-0.426
						c0-0.235,0.561-0.426,1.252-0.426C88.551,94.629,89.11,94.819,89.11,95.055z"/>
					<path style="opacity:0.5;fill:#1EB8EB;" d="M33.134,92.54c0,0.101-0.344,0.183-0.769,0.183c-0.424,0-0.768-0.082-0.768-0.183
						c0-0.102,0.344-0.183,0.768-0.183C32.79,92.357,33.134,92.438,33.134,92.54z"/>
					<path style="opacity:0.5;fill:#1EB8EB;" d="M21.055,91.708c0,0.135-0.501,0.244-1.119,0.244c-0.618,0-1.119-0.109-1.119-0.244
						c0-0.134,0.501-0.243,1.119-0.243C20.554,91.465,21.055,91.574,21.055,91.708z"/>
					<path style="opacity:0.4;fill:#1EB8EB;" d="M5.771,91.222c0,0.134-0.416,0.243-0.93,0.243c-0.513,0-0.929-0.109-0.929-0.243
						c0-0.135,0.416-0.244,0.929-0.244C5.354,90.978,5.771,91.087,5.771,91.222z"/>
					<path style="opacity:0.5;fill:#1EB8EB;" d="M10.587,102.159c0,0.143-0.356,0.258-0.797,0.258c-0.439,0-0.796-0.115-0.796-0.258
						c0-0.142,0.357-0.257,0.796-0.257C10.23,101.902,10.587,102.018,10.587,102.159z"/>
					<path style="opacity:0.4;fill:#1EB8EB;" d="M104.129,102.458c0,0.246-0.726,0.445-1.621,0.445s-1.621-0.199-1.621-0.445
						c0-0.247,0.726-0.447,1.621-0.447S104.129,102.211,104.129,102.458z"/>
					<path style="opacity:0.5;fill:#1EB8EB;" d="M141.922,104.323c0,0.179-0.535,0.324-1.195,0.324
						c-0.659,0-1.194-0.146-1.194-0.324c0-0.18,0.535-0.324,1.194-0.324C141.387,103.999,141.922,104.144,141.922,104.323z"/>
					<path style="opacity:0.6;fill:#1EB8EB;" d="M172.793,99.577c0,0.292-0.879,0.528-1.963,0.528c-1.084,0-1.963-0.236-1.963-0.528
						c0-0.291,0.879-0.527,1.963-0.527C171.914,99.05,172.793,99.286,172.793,99.577z"/>
					<path style="opacity:0.4;fill:#1EB8EB;" d="M177.741,99.313c0,0.146-0.458,0.264-1.023,0.264c-0.566,0-1.025-0.118-1.025-0.264
						c0-0.145,0.459-0.264,1.025-0.264C177.283,99.05,177.741,99.169,177.741,99.313z"/>
					<path style="opacity:0.5;fill:#1EB8EB;" d="M180.529,94.365c0,0.19,0.096,0.345-0.407,0.345c-0.503,0-1.413-0.154-1.413-0.345
						c0-0.19,0.407-0.345,0.91-0.345C180.122,94.021,180.529,94.175,180.529,94.365z"/>
					<path style="opacity:0.4;fill:#1EB8EB;" d="M177.4,89.031c0,0.135-0.382,0.243-0.854,0.243c-0.471,0-0.854-0.108-0.854-0.243
						c0-0.135,0.383-0.244,0.854-0.244C177.018,88.787,177.4,88.897,177.4,89.031z"/>
					<path style="opacity:0.6;fill:#1EB8EB;" d="M181.325,87.105c0,0.235-0.738,0.426-1.649,0.426c-0.911,0-1.649-0.19-1.649-0.426
						c0-0.235,0.738-0.426,1.649-0.426C180.587,86.679,181.325,86.869,181.325,87.105z"/>
					<path style="opacity:0.4;fill:#1EB8EB;" d="M148.775,92.723c0,0.156-0.38,0.284-0.848,0.284c-0.469,0-0.849-0.128-0.849-0.284
						c0-0.157,0.38-0.284,0.849-0.284C148.395,92.438,148.775,92.565,148.775,92.723z"/>
					<path style="opacity:0.5;fill:#1EB8EB;" d="M159.651,89.437c0,0.225-0.534,0.405-1.195,0.405c-0.659,0-1.194-0.181-1.194-0.405
						s0.535-0.405,1.194-0.405C159.117,89.031,159.651,89.212,159.651,89.437z"/>
					<path style="opacity:0.5;fill:#1EB8EB;" d="M155.119,82.298c0,0.135-0.347,0.243-0.776,0.243c-0.43,0-0.778-0.108-0.778-0.243
						c0-0.134,0.349-0.243,0.778-0.243C154.772,82.055,155.119,82.164,155.119,82.298z"/>
					<path style="opacity:0.5;fill:#1EB8EB;" d="M150.942,81.405c0,0.225-0.675,0.405-1.508,0.405c-0.833,0-1.507-0.181-1.507-0.405
						c0-0.224,0.674-0.405,1.507-0.405C150.268,81,150.942,81.182,150.942,81.405z"/>
					<path style="opacity:0.5;fill:#1EB8EB;" d="M137.977,82.055c0,0.134-0.344,0.243-0.768,0.243c-0.424,0-0.768-0.109-0.768-0.243
						c0-0.135,0.344-0.244,0.768-0.244C137.634,81.811,137.977,81.92,137.977,82.055z"/>
					<ellipse style="opacity:0.6;fill:#1EB8EB;" cx="135.304" cy="83.373" rx="1.138" ry="0.345"/>
					<path style="opacity:0.5;fill:#1EB8EB;" d="M117.358,84.65c0,0.246-0.802,0.446-1.792,0.446c-0.99,0-1.792-0.2-1.792-0.446
						s0.802-0.446,1.792-0.446C116.557,84.204,117.358,84.404,117.358,84.65z"/>
					<path style="opacity:0.5;fill:#1EB8EB;" d="M135.308,90.978c0,0.247-0.803,0.447-1.792,0.447c-0.99,0-1.793-0.2-1.793-0.447
						c0-0.246,0.803-0.445,1.793-0.445C134.505,90.532,135.308,90.731,135.308,90.978z"/>
					<path style="opacity:0.5;fill:#1EB8EB;" d="M132.794,93.929c0,0.219-0.712,0.397-1.589,0.397c-0.878,0-1.591-0.178-1.591-0.397
						c0-0.218,0.713-0.395,1.591-0.395C132.082,93.533,132.794,93.711,132.794,93.929z"/>
					<path style="opacity:0.6;fill:#1EB8EB;" d="M178.595,78.536c0,0.163-0.458,0.295-1.023,0.295c-0.566,0-1.024-0.132-1.024-0.295
						c0-0.162,0.458-0.295,1.024-0.295C178.137,78.241,178.595,78.374,178.595,78.536z"/>
					<path style="opacity:0.5;fill:#1EB8EB;" d="M90.306,86.598c0,0.209-0.548,0.378-1.224,0.378c-0.675,0-1.223-0.169-1.223-0.378
						s0.548-0.379,1.223-0.379C89.758,86.219,90.306,86.389,90.306,86.598z"/>
					<path style="opacity:0.4;fill:#1EB8EB;" d="M100.002,86.598c0,0.209-0.372,0.378-0.831,0.378s-0.831-0.169-0.831-0.378
						s0.372-0.379,0.831-0.379S100.002,86.389,100.002,86.598z"/>
					<path style="opacity:0.5;fill:#1EB8EB;" d="M4.841,95.771c0,0.154-0.635,0.279-1.417,0.279c-0.783,0-1.418-0.125-1.418-0.279
						c0-0.155,0.635-0.281,1.418-0.281C4.206,95.489,4.841,95.615,4.841,95.771z"/>
					<path style="opacity:0.4;fill:#1EB8EB;" d="M6.681,95.63c0,0.077-0.313,0.141-0.697,0.141c-0.385,0-0.696-0.063-0.696-0.141
						c0-0.077,0.312-0.141,0.696-0.141C6.368,95.489,6.681,95.553,6.681,95.63z"/>
				</g>
				<path style="opacity:0.4;fill:#1EB8EB;" d="M172.602,101.011c2.314,0.027-2.806-0.653-5.499-0.595
					c-2.503,0.054-1.896-1.434,4.589-1.515c6.486-0.081,10.98-2.604,2.655-3.847c-8.324-1.242-8.054-3.113-1.138-4.077
					c9.709-1.352,12.439-4.948,4.816-6.773c-5.214-1.249,1.228-1.188,5.65-2.427v25.896H-4.079V86.064c0,0-0.049,2.349,10.76,2.967
					c14.809,0.846,19.545,4.206,11.093,5.782c-14.601,2.723-19.051,10.025,9.22,10.586c28.27,0.56,67.232,1.819,59.963,0
					c-7.27-1.82,16.697-1.414,10.858-0.752c-5.84,0.662,14.338,1.996,34.979,2.285c19.291,0.271,45.192-0.636,38.861-2.285
					c-2.959-0.771-5.564-1.243-8.082-1.744c-2.518-0.5,5.278,0.741,7.513,0.38C175.6,102.552,177.153,102.011,172.602,101.011z"/>
				<path style="fill:#0E8ACB;" d="M110.558,107.33c-11.074,0.073-16.611-0.614-13.539-0.776c3.071-0.162-7.168-0.811-5.746,0.081
					c1.422,0.893-32.995,0.73-51.085,0.568c-26.866-0.241-43.178-1.136-43.633-6.457c-0.455-5.322,10.771-5.82,12.439-7.739
					c1.413-1.627-5.771-1.837-13.073-3.521v18.187h137.554C124.481,107.469,115.283,107.299,110.558,107.33z"/>
				<path style="fill:#0E8ACB;" d="M179.306,91.641c-6.93,2.096,7.461,3.077,2.02,5.937c-4.323,2.271-8.039,1.865-3.754,2.528
					c4.285,0.661-5.575,2.96-1.48,3.894c4.097,0.933-2.642,3.332-10.953,3.674h18.538V89.642
					C182.778,90.337,181.362,91.02,179.306,91.641z"/>
				<path style="opacity:0.4;fill:#1EB8EB;" d="M47.223,94.002c14.998,0.34,29.606-0.839,26.585-2.577
					c-3.02-1.739,8.921-2.718,23.097-2.394c14.175,0.324,10.864,2.13,0.91,3.864c-9.955,1.733,1.365,2.946,12.63,3.395
					c11.263,0.447,1.053,6.142-16.043,6.729c-10.164,0.349-19.019-0.359-13.094,0.695c5.926,1.055-10.913,1.703-32.53,0.933
					s-43.756-5.08-15.278-5.359c28.477-0.279,18.464-1.252,11.524-2.51C38.082,95.521,30.308,93.619,47.223,94.002z"/>
				<path style="opacity:0.4;fill:#1EB8EB;" d="M143.779,102.443c4.927,0.217,10.611-1.062,17.901,0.46
					c4.665,0.974,7.774,1.055,7.964,1.92c0.189,0.866-14.146,0.92-10.581,0.405c3.565-0.514-2.123-0.243-6.561-0.581
					s-3.717-0.202-1.555,0.23c2.161,0.432-4.476,0.204-7.623-1.088C140.178,102.498,141.314,102.336,143.779,102.443z"/>
				<path style="opacity:0.4;fill:#1EB8EB;" d="M161.239,102.146c1.389-0.365,5.438-1.412,9.363-1.148
					c3.925,0.264,2.616,0.547,0.825,0.689c-1.793,0.142-0.854,0.18,0.967,0.202c1.82,0.021-0.739,0.744-4.893,0.697
					C163.349,102.539,160.048,102.46,161.239,102.146z"/>
				<path style="opacity:0.4;fill:#1EB8EB;" d="M182.767,85.097c0.34,0.177,0.643,0.367,0.91,0.567v-2.499
					C180.836,83.442,180.005,83.654,182.767,85.097z"/>
			</g>
			<g>
				<path style="opacity:0.4;fill:#1EB8EB;" d="M-4.139,61.605V90.56c0.954,0.346,2.615,0.633,5.461,0.703
					c8.248,0.202,17.464,0.608,16.099,1.521c-1.365,0.912,0.967,2.025,6.372,2.33c5.404,0.304,6.428,0.76,5.006,1.064
					c-1.423,0.304,4.152,3.327,20.915,3.732c16.764,0.405,24.475-2.848,21.744-4.536c-2.73-1.689,2.604-0.825,13.526-0.881
					c10.923-0.056,22.983-2.159,21.011-4.186c-1.972-2.027,7.454-0.833,15.321-0.531c9.86,0.378,16.882-2.171,14.606-4.063
					c-2.275-1.892-0.38-2.026,11.226-1.486c11.604,0.54,21.466,1.284,19.341-0.811c-2.123-2.094,4.205,0.405,12.094,0.405
					c2.219,0,3.845-0.147,5.033-0.253V61.605H-4.139z"/>
				<path style="opacity:0.2;fill:#C67F31;" d="M-4.139,59.765v28.954c0.954,0.347,2.615,0.634,5.461,0.703
					c8.248,0.203,17.464,0.608,16.099,1.521c-1.365,0.912,0.967,2.025,6.372,2.33c5.404,0.305,6.428,0.761,5.006,1.064
					c-1.423,0.304,4.152,3.327,20.915,3.733c16.764,0.404,22.604-2.095,19.873-3.784c-2.73-1.688,4.476-1.577,15.397-1.633
					c10.923-0.056,21.77-1.475,19.798-3.501c-1.973-2.027,8.722-2.095,16.534-1.217c7.813,0.879,15.834-1.165,13.559-3.057
					s-0.38-2.027,11.226-1.486c11.604,0.54,21.58,1.205,19.455-0.89c-2.124-2.094,5.139,0.097,13.027,0.097
					c2.219,0,3.845-0.074,5.033-0.18V59.765H-4.139z"/>
				
					<linearGradient id="SVGID_00000055681368766567268270000016247196018261386889_" gradientUnits="userSpaceOnUse" x1="89.7387" y1="55.6236" x2="89.7387" y2="96.7719">
					<stop  offset="0" style="stop-color:#0074AC"/>
					<stop  offset="1" style="stop-color:#57C8E8"/>
				</linearGradient>
				<path style="fill:url(#SVGID_00000055681368766567268270000016247196018261386889_);" d="M-4.139,58.799v28.955
					c0.954,0.346,2.615,0.633,5.461,0.702c8.248,0.203,17.464,0.608,16.099,1.521c-1.365,0.912,0.967,2.025,6.372,2.33
					c5.404,0.305,6.428,0.761,5.006,1.064c-1.423,0.304,4.152,3.327,20.915,3.732c16.764,0.405,22.604-2.094,19.873-3.783
					c-2.73-1.688,4.476-1.577,15.397-1.634c10.923-0.055,21.77-1.474,19.798-3.5c-1.973-2.026,8.722-2.095,16.534-1.216
					c7.813,0.877,15.02-1.149,12.743-3.041c-2.275-1.892-0.379-2.026,11.225-1.486c11.605,0.541,21.466,1.284,19.342-0.81
					c-2.123-2.095,6.067,0,13.956,0c2.219,0,3.845-0.074,5.033-0.181V58.799H-4.139z"/>
				<g>
					
						<linearGradient id="SVGID_00000039821307071270522940000015096743327156295817_" gradientUnits="userSpaceOnUse" x1="89.7387" y1="103.8948" x2="89.7387" y2="63.6625">
						<stop  offset="0" style="stop-color:#F3FAFD"/>
						<stop  offset="0.3586" style="stop-color:#FFFFFF"/>
						<stop  offset="1" style="stop-color:#9EDBF3"/>
					</linearGradient>
					<path style="fill:url(#SVGID_00000039821307071270522940000015096743327156295817_);" d="M179.343,79.501
						c-3.717-0.102-7.852-0.71-11.112-0.912c-3.263-0.203-7.005,0.44-6.626,1.015c0.38,0.574-0.53,1.385-5.093,1.385
						c-4.564,0-6.626-0.676-13.073-0.541c-6.447,0.135-8.521,0.126-12.466,0.295c-3.943,0.168-4.74,0.371-3.792,1.385
						c0.948,1.014-0.113,1.452-5.158,1.689c-5.043,0.235-10.757-0.292-15.838,0.147c-5.082,0.439-1.441,1.554-3.565,2.298
						c-2.123,0.742-3.868-1.19-5.764-0.818c-1.896,0.371,1.555,0.979-0.759,1.688c-2.471,0.758-4.21,0.338-7.737,0.271
						c-3.526-0.068-0.91,0.404-4.096,0.54c-3.186,0.136-7.319-0.271-11.604-0.304c-4.286-0.034-7.889-0.39-9.216,0.894
						c-1.763,1.704,2.086,2.567,0.19,3.615c-1.896,1.047-9.595,1.182-15.132,1.182c-5.537,0-8.268-1.325-11.454-1.527
						c-3.186-0.203-3.148-0.508-2.731-1.082c0.417-0.574-2.275-1.401-4.019-1.401c-1.744,0-3.729-0.767-5.474-0.733
						c-1.744,0.034-3.147-0.574-2.237-1.216c0.91-0.642,0.417-1.047-1.441-1.081c-1.858-0.034-3.895-0.061-6.397-0.161
						c-5.911-0.24-4.703-0.575-10.013-0.643c-4.109-0.052-7.172,0.117-8.874-0.695v2.965c0.954,0.346,2.615,0.633,5.461,0.702
						c8.248,0.203,17.464,0.608,16.099,1.521c-1.365,0.912,0.967,2.025,6.372,2.33c5.404,0.305,6.428,0.761,5.006,1.064
						c-1.423,0.304,4.152,3.327,20.915,3.732c16.764,0.405,22.604-2.094,19.873-3.783c-2.73-1.688,4.476-1.577,15.397-1.634
						c10.923-0.055,21.77-1.474,19.798-3.5c-1.973-2.026,8.722-2.095,16.534-1.216c7.813,0.877,15.02-1.149,12.743-3.041
						c-2.275-1.892-0.379-2.026,11.225-1.486c11.605,0.541,21.466,1.284,19.342-0.81c-2.123-2.095,6.067,0,13.956,0
						c2.219,0,3.845-0.074,5.033-0.181V79.19C182.71,79.373,181.296,79.554,179.343,79.501z"/>
					<path style="fill:#FFFFFF;" d="M53.22,97.2c-1.126,0-2.306-0.016-3.507-0.044c-8.124-0.196-13.274-1-16.165-1.639
						c-3.225-0.714-4.967-1.525-5.021-1.96c-0.008-0.066,0.015-0.186,0.258-0.237c0.528-0.113,0.534-0.207,0.533-0.218
						c-0.005-0.045-0.199-0.442-5.529-0.743c-3.89-0.22-6.489-0.873-6.783-1.705c-0.061-0.172-0.045-0.437,0.379-0.72
						c0.089-0.06,0.125-0.112,0.107-0.159c-0.15-0.4-3.079-0.944-16.171-1.267c-2.514-0.062-4.358-0.3-5.482-0.707L-4.2,87.788V84.7
						l0.091,0.043c1.38,0.658,3.735,0.666,6.717,0.676c0.681,0.002,1.384,0.004,2.129,0.014c2.806,0.035,3.81,0.147,4.972,0.277
						c1.057,0.117,2.254,0.251,5.042,0.363c2.171,0.089,4.017,0.121,5.646,0.149l0.75,0.013c1.158,0.021,1.806,0.184,1.925,0.483
						c0.078,0.194-0.072,0.427-0.446,0.691c-0.224,0.157-0.306,0.313-0.244,0.462c0.162,0.393,1.225,0.685,2.441,0.661
						c0.901-0.016,1.875,0.178,2.816,0.368c0.892,0.179,1.814,0.364,2.659,0.364c1.554,0,3.722,0.621,4.07,1.166
						c0.07,0.11,0.071,0.22,0.001,0.316c-0.155,0.214-0.232,0.36-0.165,0.476c0.147,0.251,0.998,0.407,2.849,0.525
						c1.242,0.079,2.438,0.333,3.706,0.602c2.045,0.433,4.363,0.926,7.743,0.926c8.729,0,13.669-0.384,15.1-1.174
						c0.304-0.168,0.469-0.337,0.504-0.517c0.057-0.283-0.218-0.585-0.507-0.905c-0.512-0.563-1.148-1.267-0.199-2.184
						c0.843-0.814,2.535-0.981,4.818-0.981c0.71,0,1.468,0.017,2.27,0.033c0.701,0.016,1.426,0.031,2.173,0.037
						c1.854,0.015,3.663,0.098,5.412,0.179c1.706,0.078,3.317,0.152,4.779,0.152c0.514,0,0.976-0.009,1.41-0.026
						c1.497-0.064,1.69-0.198,1.858-0.316c0.202-0.143,0.366-0.261,2.242-0.225c0.949,0.018,1.777,0.063,2.508,0.102
						c0.761,0.04,1.417,0.075,2.052,0.075c1.197,0,2.141-0.133,3.155-0.444c0.482-0.147,0.747-0.303,0.786-0.46
						c0.041-0.163-0.166-0.336-0.349-0.488c-0.183-0.151-0.354-0.295-0.307-0.443c0.042-0.129,0.238-0.221,0.635-0.299
						c0.167-0.032,0.341-0.049,0.518-0.049c0.699,0,1.364,0.247,2.069,0.509c0.699,0.26,1.422,0.529,2.175,0.528
						c0.346,0,0.671-0.055,0.993-0.167c0.802-0.28,0.739-0.603,0.673-0.942c-0.043-0.219-0.087-0.445,0.099-0.656
						c0.305-0.345,1.171-0.561,2.811-0.702c1.434-0.124,3.019-0.182,4.992-0.182c1.297,0,2.626,0.024,3.911,0.049
						c1.269,0.023,2.579,0.048,3.842,0.048c1.165,0,2.177-0.021,3.096-0.063c3.57-0.168,5.129-0.434,5.379-0.919
						c0.09-0.175,0.003-0.398-0.265-0.685c-0.336-0.358-0.44-0.604-0.339-0.799c0.223-0.432,1.468-0.556,4.175-0.672
						c2.697-0.115,4.492-0.146,7.465-0.199c1.389-0.024,2.964-0.053,5.003-0.096c0.565-0.012,1.123-0.018,1.654-0.018
						c2.743,0,4.596,0.154,6.388,0.303c1.582,0.132,3.076,0.256,5.032,0.256c4.01,0,4.863-0.627,5.044-0.896
						c0.09-0.133,0.089-0.271-0.003-0.41c-0.048-0.071-0.046-0.148,0.003-0.224c0.325-0.483,2.849-0.907,5.4-0.907
						c0.439,0,0.869,0.013,1.278,0.038c1.324,0.082,2.776,0.229,4.316,0.387c2.255,0.229,4.587,0.465,6.794,0.525
						c0.23,0.006,0.459,0.01,0.684,0.01c1.326,0,2.529-0.107,3.574-0.318l0.075-0.015v2.376l-0.055,0.005
						c-1.34,0.119-3.036,0.181-5.04,0.181c-3.147,0-6.342-0.334-8.91-0.602c-1.7-0.177-3.17-0.33-4.125-0.33
						c-0.696,0-1.094,0.085-1.181,0.251c-0.067,0.128,0.036,0.327,0.306,0.593c0.279,0.275,0.366,0.519,0.26,0.722
						c-0.274,0.524-1.808,0.759-4.97,0.759c-2.805,0-6.507-0.183-10.793-0.395c-1.263-0.063-2.565-0.127-3.888-0.188
						c-4.206-0.196-6.615-0.275-8.314-0.275c-2.36,0-3.49,0.165-3.663,0.537c-0.109,0.231,0.145,0.592,0.797,1.134
						c0.419,0.348,0.543,0.711,0.372,1.078c-0.592,1.27-4.707,2.264-9.369,2.264c-1.27,0-2.547-0.07-3.796-0.211
						c-3.027-0.341-6.456-0.536-9.408-0.536c-4.241,0-6.886,0.392-7.253,1.075c-0.095,0.176-0.036,0.369,0.18,0.591
						c0.254,0.261,0.313,0.522,0.178,0.777c-0.535,1-3.975,1.647-6.766,2.015c-3.662,0.481-8.493,0.771-13.254,0.796
						c-0.833,0.004-1.644,0.008-2.43,0.01c-7.646,0.031-13.172,0.054-13.476,0.881c-0.063,0.168,0.119,0.386,0.542,0.646
						c0.553,0.342,0.769,0.726,0.626,1.109C69.729,95.787,64.261,97.2,53.22,97.2z M-4.079,87.719
						c1.114,0.394,2.932,0.625,5.403,0.686c14.274,0.351,16.129,0.932,16.282,1.339c0.035,0.093-0.015,0.186-0.148,0.274
						c-0.296,0.198-0.409,0.402-0.337,0.605c0.208,0.591,2.082,1.372,6.675,1.632c2.55,0.144,5.598,0.405,5.642,0.839
						c0.014,0.13-0.185,0.234-0.624,0.328c-0.117,0.025-0.173,0.067-0.166,0.124c0.076,0.612,5.775,3.136,21.068,3.505
						c1.201,0.03,2.38,0.044,3.504,0.044c10.981,0,16.406-1.376,16.913-2.74c0.126-0.341-0.069-0.675-0.581-0.991
						c-0.476-0.295-0.669-0.545-0.588-0.764c0.331-0.9,5.606-0.922,13.591-0.954c0.786-0.003,1.598-0.006,2.43-0.011
						c10.369-0.053,19.114-1.261,19.911-2.75c0.116-0.217,0.063-0.434-0.161-0.665c-0.245-0.253-0.313-0.489-0.197-0.703
						c0.531-0.987,4.843-1.135,7.363-1.135c2.956,0,6.392,0.195,9.424,0.536c1.244,0.14,2.517,0.211,3.78,0.211
						c4.616,0,8.682-0.966,9.256-2.198c0.151-0.324,0.036-0.648-0.343-0.963c-0.712-0.592-0.959-0.966-0.826-1.249
						c0.199-0.429,1.294-0.604,3.776-0.604c1.701,0,4.111,0.08,8.32,0.276c1.324,0.062,2.625,0.126,3.889,0.188
						c4.284,0.212,7.984,0.395,10.786,0.395c3.024,0,4.613-0.229,4.86-0.697c0.085-0.162,0.003-0.367-0.242-0.609
						c-0.308-0.305-0.414-0.534-0.324-0.706c0.111-0.213,0.522-0.312,1.291-0.312c0.963,0,2.436,0.153,4.14,0.33
						c2.565,0.268,5.756,0.601,8.895,0.601c1.973,0,3.646-0.059,4.974-0.175v-2.149c-1.038,0.203-2.224,0.306-3.528,0.306
						c-0.226,0-0.457-0.003-0.689-0.01c-2.212-0.06-4.546-0.297-6.804-0.526c-1.537-0.156-2.989-0.303-4.311-0.386
						c-0.406-0.025-0.834-0.038-1.27-0.038c-2.659,0-5.029,0.46-5.296,0.855c-0.027,0.042-0.028,0.08-0.003,0.119
						c0.114,0.172,0.114,0.35,0.003,0.515c-0.237,0.354-1.224,0.948-5.148,0.948c-1.962,0-3.459-0.125-5.044-0.256
						c-1.789-0.148-3.64-0.302-6.376-0.302c-0.531,0-1.087,0.005-1.651,0.018c-2.039,0.043-3.614,0.07-5.003,0.095
						c-2.973,0.052-4.766,0.084-7.461,0.199c-2.548,0.109-3.877,0.233-4.072,0.61c-0.078,0.151,0.024,0.37,0.323,0.689
						c0.303,0.324,0.394,0.576,0.281,0.794c-0.274,0.533-1.812,0.809-5.482,0.98c-0.921,0.043-1.935,0.063-3.103,0.063
						c-1.264,0-2.576-0.024-3.845-0.048c-1.284-0.023-2.613-0.049-3.908-0.049c-1.968,0-3.55,0.058-4.98,0.182
						c-1.581,0.137-2.447,0.347-2.726,0.662c-0.153,0.173-0.116,0.368-0.075,0.574c0.067,0.35,0.145,0.745-0.747,1.057
						c-0.337,0.118-0.677,0.176-1.039,0.176c-0.777,0-1.512-0.273-2.224-0.537c-0.691-0.258-1.346-0.501-2.021-0.501
						c-0.168,0-0.333,0.016-0.49,0.047c-0.417,0.081-0.526,0.167-0.545,0.225c-0.028,0.088,0.125,0.216,0.274,0.34
						c0.205,0.171,0.438,0.365,0.383,0.586c-0.051,0.2-0.325,0.371-0.864,0.536c-1.029,0.315-1.985,0.45-3.196,0.45
						c-0.639,0-1.297-0.035-2.06-0.076c-0.729-0.038-1.556-0.082-2.503-0.101c-1.819-0.035-1.98,0.073-2.163,0.201
						c-0.184,0.129-0.392,0.275-1.929,0.339c-0.437,0.02-0.899,0.028-1.416,0.028c-1.465,0-3.077-0.074-4.785-0.153
						c-1.748-0.08-3.555-0.164-5.407-0.178c-0.749-0.007-1.474-0.022-2.175-0.037c-0.801-0.018-1.558-0.034-2.267-0.034
						c-2.25,0-3.915,0.161-4.728,0.947c-0.881,0.852-0.304,1.488,0.204,2.05c0.307,0.338,0.597,0.657,0.532,0.986
						c-0.042,0.211-0.225,0.403-0.559,0.587c-1.451,0.802-6.411,1.191-15.165,1.191c-3.395,0-5.721-0.493-7.771-0.929
						c-1.263-0.269-2.455-0.521-3.687-0.6c-2.248-0.144-2.804-0.336-2.948-0.583c-0.104-0.176,0.021-0.373,0.171-0.578
						c0.047-0.064,0.045-0.133-0.005-0.21c-0.325-0.509-2.475-1.112-3.964-1.112c-0.859,0-1.788-0.187-2.687-0.367
						c-0.934-0.188-1.899-0.383-2.786-0.365c-1.287,0.025-2.377-0.29-2.559-0.731c-0.056-0.134-0.052-0.344,0.281-0.579
						c0.326-0.229,0.468-0.429,0.409-0.575c-0.058-0.143-0.368-0.387-1.813-0.412l-0.75-0.014c-1.63-0.028-3.477-0.061-5.648-0.148
						c-2.794-0.113-3.994-0.247-5.053-0.365c-1.158-0.129-2.159-0.241-4.958-0.276c-0.744-0.01-1.447-0.012-2.128-0.014
						c-2.936-0.009-5.268-0.017-6.686-0.647V87.719z"/>
				</g>
				<g>
					<path style="opacity:0.4;fill:#1EB8EB;" d="M3.938,80.781c10.733,0.613,16.422-0.146,12.705,1.341
						c-1.811,0.725,6.979,2.702,15.625,2.702c8.647,0,9.796-1.911,11.909-1.523c1.668,0.308-5.841,2.808,9.405,3.686
						c10.467,0.604,19.038-1.178,14.715-1.892c-6.063-1.001,10.771-1.283,16.08-1.216s1.44-1.153,8.646-1.355
						c7.206-0.203,12.534,0.067,18.147,0c5.612-0.067,13.255-0.033,11.738-1.129c-1.518-1.097,3.028-1.261,10.771-1.261
						c12.97,0,4.103-1.283,10.474-0.742c6.372,0.54,11.219-0.497,16.681-0.971c5.461-0.473-5.083-0.811,3.413-1.216
						c8.495-0.405,8.572,0.047,6.145,0.328c-2.427,0.283-0.985,0.688,4.855,0.823c5.84,0.135,8.341-0.086,8.341-0.086l0.027,0.009
						V59.49H-4.139v20.184C-2.863,80.275-0.478,80.529,3.938,80.781z"/>
					<path style="opacity:0.4;fill:#49C7EF;" d="M-4.139,58.799v18.133c0.937,0.643,2.86,1.395,9.178,0.97
						c7.527-0.508,9.291-1.791,11.149-0.997c1.858,0.794,0.701,1.436,5.386,1.874c4.684,0.439,14.962,2.534,17.862,1.571
						c2.901-0.963,3.527-0.361,6.77,0.25c3.243,0.611,3.471-0.757,7.908,0.561c4.437,1.317,8.419,0.254,12.344,0.456
						c3.926,0.203,5.688,0.254,11.378-0.102c5.688-0.354,7.167,1.014,9.329-0.558c2.162-1.57,9.898-1.52,19.398-1.216
						c9.501,0.304,14.279,0.705,14.848-0.533c0.569-1.24,3.77-1.275,10.411-0.886c5.177,0.305,5.518-0.151,5.631-0.76
						c0.114-0.607-0.283-0.765,3.813-0.357c4.096,0.408,4.152,0.819,10.467,0.768c6.315-0.05,8.761-0.415,7.054-0.768
						c-1.706-0.352,5.632-1.029,9.785-0.979c4.152,0.051,2.619,0.666,4.807,0.805c4.409,0.278,8.769-0.362,5.917-0.938
						c-1.679-0.339,3.727-0.383,4.321-0.74V58.799H-4.139z"/>
					
						<linearGradient id="SVGID_00000036947231376550386910000009173816276535815850_" gradientUnits="userSpaceOnUse" x1="89.7387" y1="58.6637" x2="89.7387" y2="80.7554">
						<stop  offset="0.1168" style="stop-color:#000000"/>
						<stop  offset="0.1251" style="stop-color:#010203"/>
						<stop  offset="0.3756" style="stop-color:#224957"/>
						<stop  offset="0.5969" style="stop-color:#3C819A"/>
						<stop  offset="0.781" style="stop-color:#4FA9CA"/>
						<stop  offset="0.9208" style="stop-color:#5BC2E8"/>
						<stop  offset="1" style="stop-color:#5FCBF3"/>
					</linearGradient>
					<path style="fill:url(#SVGID_00000036947231376550386910000009173816276535815850_);" d="M3.673,73.73
						c4.333-0.524,9.254-0.203,6.6,0.404c-2.655,0.608,1.062,0.879,4.399,0.744c3.338-0.136-0.835-0.946,4.399-0.541
						c5.233,0.405,0.891,1.391,8.874,2.364c9.405,1.148,11.378,0,18.204-0.405c6.826-0.405,10.771,0.791,14.64,0.902
						c3.867,0.111,6.219-1.037,15.169-1.037c8.951,0,10.316,0.743,16.99,0.54c6.675-0.202,19.797,0.068,18.735-1.148
						c-1.062-1.216,9.331-0.044,15.322-0.727c4.873-0.556-0.02-1.215,4.588-1.164c4.608,0.052,18.205,1.115,25.544,0.102
						c7.337-1.014,8.076,0.362,11.206,0.405c3.641,0.051,3.243-0.76,6.087,0c2.844,0.76,4.039,1.062,6.314,0.657
						c1.17-0.207,2.172-0.321,2.871-0.384V58.799H-4.139v14.307C-3.116,73.49-0.905,74.282,3.673,73.73z"/>
					<path style="opacity:0.4;fill:#1EB8EB;" d="M4.735,70.968c5.612-0.559,5.119,0.06,7.434,0.53
						c2.314,0.473,4.247-0.295,7.471,0.147c3.224,0.442,4.513,1.296,10.126,1.592c5.613,0.294,8.648,0.146,14.07,0
						c5.423-0.147,5.233-1.032,9.178-1.002c3.944,0.029,8.116,1.342,12.819,1.172c4.702-0.17,4.171-0.849,10.732-0.436
						c6.561,0.412,6.602,0.022,11.339,0.736c4.738,0.715,4.361-0.088,12.819-0.206c8.457-0.118,10.847,0.029,10.164-0.589
						c-0.683-0.619,3.943-0.767,7.243-0.648c3.3,0.118,11.568,0.236,10.695-0.825c-0.872-1.061,3.982-0.677,9.897-0.648
						c5.917,0.029,13.654,0.147,16.802,0.147c3.148,0,4.816-0.824,7.357-0.501c2.541,0.324,2.541,0.561,7.357,0.943
						c4.816,0.383,2.692,0.059,6.713,0.383c4.02,0.324,4.778,0.088,3.489-0.56c-1.035-0.521,0.788-0.472,3.174-0.432V58.799H-4.139
						v11.622C-2.989,70.723,0.272,71.413,4.735,70.968z"/>
					<path style="opacity:0.4;fill:#1EB8EB;" d="M0.98,64.744c-5.119,0.911,1.138,2.229,23.097,1.925
						c21.958-0.304,1.479-2.387,15.587-1.954c14.108,0.435,21.162,0.536,16.156,1.347c-5.006,0.811,4.551,1.281,10.126,1.451
						c5.574,0.17,13.652-1.148,22.641-0.844c8.988,0.305,19.797,1.079,24.918,0.844c5.119-0.235,10.693,0.372,16.952-1.046
						c6.258-1.419,21.161-1.521,19.114-0.812c-2.048,0.71,16.042,1.192,10.354-0.519c-5.689-1.71,9.56-1.197,17.066-1.406
						c3.55-0.099-0.903-0.969,6.625-1.012v-3.92H-4.139v4.023C0.658,63.123,5.325,63.97,0.98,64.744z"/>
				</g>
				<g>
					<g style="opacity:0.7;">
						
							<linearGradient id="SVGID_00000041979668626317766330000007537357664856940200_" gradientUnits="userSpaceOnUse" x1="1.7079" y1="93.14" x2="1.7079" y2="66.4776">
							<stop  offset="0" style="stop-color:#F3FAFD"/>
							<stop  offset="0.3586" style="stop-color:#FFFFFF"/>
							<stop  offset="0.6851" style="stop-color:#9EDBF3"/>
						</linearGradient>
						<path style="fill:url(#SVGID_00000041979668626317766330000007537357664856940200_);" d="M-2.794,81.508
							c-0.292-2.165,9.729-0.882,8.969,0.323C5.413,83.036-2.503,83.673-2.794,81.508z"/>
						<path style="fill:#FFFFFF;" d="M1.225,82.988c-2.43,0-3.955-0.551-4.079-1.475c-0.03-0.224,0.042-0.422,0.215-0.59
							c0.543-0.526,1.93-0.637,2.997-0.637c2.27,0,5.389,0.549,5.856,1.23c0.078,0.113,0.083,0.23,0.014,0.339
							C5.884,82.401,3.873,82.988,1.225,82.988z M0.357,80.391c-1.474,0-2.506,0.215-2.906,0.603
							c-0.148,0.145-0.211,0.315-0.186,0.509c0.117,0.865,1.597,1.382,3.959,1.382c2.285,0,4.528-0.494,4.897-1.077
							c0.049-0.077,0.045-0.154-0.011-0.235C5.709,80.987,2.806,80.391,0.357,80.391z"/>
					</g>
					<g style="opacity:0.5;">
						
							<linearGradient id="SVGID_00000093872673881469955010000002648939695567127975_" gradientUnits="userSpaceOnUse" x1="54.3373" y1="68.7183" x2="54.3373" y2="58.3738">
							<stop  offset="0" style="stop-color:#F3FAFD"/>
							<stop  offset="0.3586" style="stop-color:#FFFFFF"/>
							<stop  offset="0.6851" style="stop-color:#9EDBF3"/>
						</linearGradient>
						<path style="fill:url(#SVGID_00000093872673881469955010000002648939695567127975_);" d="M52.886,64.205
							c-0.095-0.701,2.905-0.528,2.905,0.104C55.791,64.943,52.979,64.906,52.886,64.205z"/>
						<path style="fill:#FFFFFF;" d="M54.487,64.812c-0.762,0-1.607-0.188-1.662-0.601c-0.013-0.091,0.019-0.174,0.092-0.245
							c0.248-0.241,0.895-0.267,1.16-0.267c0.736,0,1.774,0.189,1.774,0.61C55.852,64.681,55.116,64.812,54.487,64.812z
							 M54.077,63.804c-0.521,0-0.92,0.087-1.069,0.231c-0.051,0.049-0.07,0.103-0.063,0.164c0.045,0.329,0.827,0.508,1.542,0.508
							c0.617,0,1.243-0.137,1.243-0.397C55.73,64.012,54.859,63.804,54.077,63.804z"/>
					</g>
					<g style="opacity:0.5;">
						
							<linearGradient id="SVGID_00000182491121692113097740000008556161596984887681_" gradientUnits="userSpaceOnUse" x1="423.6081" y1="70.7947" x2="423.6081" y2="51.3717" gradientTransform="matrix(-1.2009 0 0 1 650.0423 0)">
							<stop  offset="0" style="stop-color:#F3FAFD"/>
							<stop  offset="0.3586" style="stop-color:#FFFFFF"/>
							<stop  offset="0.6851" style="stop-color:#9EDBF3"/>
						</linearGradient>
						<path style="fill:url(#SVGID_00000182491121692113097740000008556161596984887681_);" d="M145.27,62.321
							c0.255-1.578-8.511-0.643-7.846,0.235C138.089,63.435,145.015,63.897,145.27,62.321z"/>
						<path style="fill:#FFFFFF;" d="M141.754,63.413h-0.001c-1.804,0-3.992-0.317-4.38-0.827c-0.057-0.075-0.061-0.156-0.012-0.235
							c0.323-0.518,3.082-0.934,5.151-0.934c0.985,0,2.249,0.09,2.678,0.515c0.115,0.115,0.163,0.249,0.139,0.396
							C145.276,62.654,144.822,63.413,141.754,63.413z M142.513,61.522c-2.186,0-4.777,0.451-5.045,0.878
							c-0.027,0.044-0.025,0.085,0.007,0.128c0.321,0.423,2.28,0.78,4.278,0.78c2.064,0,3.355-0.372,3.456-0.995
							c0.02-0.118-0.017-0.221-0.109-0.313C144.789,61.691,143.869,61.522,142.513,61.522z"/>
					</g>
					<g style="opacity:0.5;">
						
							<linearGradient id="SVGID_00000151526212461625003880000018185345849334033796_" gradientUnits="userSpaceOnUse" x1="103.5531" y1="69.5386" x2="103.5531" y2="51.7842">
							<stop  offset="0" style="stop-color:#F3FAFD"/>
							<stop  offset="0.3586" style="stop-color:#FFFFFF"/>
							<stop  offset="0.6851" style="stop-color:#9EDBF3"/>
						</linearGradient>
						<path style="fill:url(#SVGID_00000151526212461625003880000018185345849334033796_);" d="M100.556,61.793
							c-0.195-1.442,6.479-0.587,5.972,0.215C106.021,62.811,100.749,63.234,100.556,61.793z"/>
						<path style="fill:#FFFFFF;" d="M103.231,62.796c-1.629,0-2.652-0.373-2.736-0.997c-0.021-0.154,0.029-0.291,0.148-0.406
							c0.366-0.356,1.295-0.431,2.01-0.431c1.55,0,3.598,0.361,3.918,0.828c0.056,0.081,0.059,0.165,0.01,0.243
							C106.283,62.504,104.61,62.796,103.231,62.796z M102.653,61.066c-0.976,0-1.657,0.141-1.92,0.396
							c-0.097,0.094-0.135,0.2-0.118,0.325c0.076,0.566,1.055,0.904,2.616,0.904c1.489,0,3.004-0.331,3.242-0.708
							c0.029-0.046,0.027-0.091-0.007-0.14C106.203,61.459,104.278,61.066,102.653,61.066z"/>
					</g>
					<g style="opacity:0.2;">
						
							<linearGradient id="SVGID_00000049212340113857250900000015026119265060527293_" gradientUnits="userSpaceOnUse" x1="26.9814" y1="89.2945" x2="26.9814" y2="73.98">
							<stop  offset="0" style="stop-color:#F3FAFD"/>
							<stop  offset="0.3586" style="stop-color:#FFFFFF"/>
							<stop  offset="0.6851" style="stop-color:#9EDBF3"/>
						</linearGradient>
						<path style="fill:url(#SVGID_00000049212340113857250900000015026119265060527293_);" d="M24.847,82.33
							c0.23-0.681,4.271-0.416,4.293,0.401C29.173,83.896,24.449,83.508,24.847,82.33z"/>
						<path style="fill:#FFFFFF;" d="M27.409,83.486c-0.952,0-2.12-0.236-2.511-0.687c-0.131-0.15-0.167-0.313-0.109-0.484
							c0.129-0.384,1.172-0.426,1.613-0.426c1.119,0,2.782,0.267,2.798,0.84c0.005,0.143-0.056,0.27-0.178,0.378
							C28.751,83.349,28.162,83.486,27.409,83.486z M26.402,81.994c-0.838,0-1.426,0.138-1.497,0.351
							c-0.047,0.138-0.017,0.27,0.09,0.393c0.367,0.423,1.492,0.645,2.414,0.645c0.721,0,1.277-0.127,1.526-0.348
							c0.099-0.087,0.147-0.188,0.144-0.302C29.067,82.298,27.659,81.994,26.402,81.994z"/>
					</g>
					<g style="opacity:0.7;">
						
							<linearGradient id="SVGID_00000089537831397210198680000011761160029906897305_" gradientUnits="userSpaceOnUse" x1="41.3721" y1="105.7118" x2="41.3721" y2="62.3546">
							<stop  offset="0" style="stop-color:#F3FAFD"/>
							<stop  offset="0.3586" style="stop-color:#FFFFFF"/>
							<stop  offset="0.6851" style="stop-color:#9EDBF3"/>
						</linearGradient>
						<path style="fill:url(#SVGID_00000089537831397210198680000011761160029906897305_);" d="M33.978,87.041
							c0-2.739,14.789-2.98,14.789,0C48.767,90.021,33.978,89.593,33.978,87.041z"/>
						<path style="fill:#FFFFFF;" d="M41.799,89.171c-3.821,0-7.882-0.747-7.882-2.13c0-1.442,3.867-2.198,7.688-2.198
							c3.595,0,7.222,0.68,7.222,2.198c0,0.688-0.76,1.249-2.196,1.626C45.392,88.992,43.676,89.171,41.799,89.171z M41.605,84.948
							c-3.669,0-7.567,0.733-7.567,2.093c0,1.268,3.946,2.025,7.761,2.025c3.438,0,6.906-0.627,6.906-2.025
							C48.705,85.603,45.025,84.948,41.605,84.948z"/>
					</g>
					<g style="opacity:0.9;">
						
							<linearGradient id="SVGID_00000098920252735404582370000009623388183639445173_" gradientUnits="userSpaceOnUse" x1="66.2261" y1="95.4215" x2="66.2261" y2="67.5066">
							<stop  offset="0" style="stop-color:#F3FAFD"/>
							<stop  offset="0.3586" style="stop-color:#FFFFFF"/>
							<stop  offset="0.6851" style="stop-color:#9EDBF3"/>
						</linearGradient>
						<path style="fill:url(#SVGID_00000098920252735404582370000009623388183639445173_);" d="M61.865,83.318
							c-0.897-1.839,8.522-1.517,8.772-0.328C70.976,84.607,63.072,85.791,61.865,83.318z"/>
						<path style="fill:#FFFFFF;" d="M65.741,84.79c-2.048,0-3.482-0.529-3.932-1.451c-0.101-0.205-0.085-0.395,0.044-0.563
							c0.39-0.506,1.875-0.81,3.975-0.81c2.288,0,4.735,0.38,4.868,1.015c0.042,0.203-0.031,0.404-0.219,0.599
							C69.811,84.27,67.774,84.79,65.741,84.79z M65.828,82.071c-2.028,0-3.512,0.292-3.873,0.763
							c-0.108,0.14-0.118,0.291-0.034,0.464c0.431,0.882,1.823,1.388,3.82,1.388c1.968,0,4.008-0.516,4.643-1.174
							c0.164-0.169,0.229-0.342,0.193-0.513C70.472,82.496,68.297,82.071,65.828,82.071z"/>
					</g>
					<g style="opacity:0.2;">
						
							<linearGradient id="SVGID_00000161628096614295565910000005325675622387458957_" gradientUnits="userSpaceOnUse" x1="87.7932" y1="97.2333" x2="87.7932" y2="66.5537">
							<stop  offset="0" style="stop-color:#F3FAFD"/>
							<stop  offset="0.3586" style="stop-color:#FFFFFF"/>
							<stop  offset="0.6851" style="stop-color:#9EDBF3"/>
						</linearGradient>
						<path style="fill:url(#SVGID_00000161628096614295565910000005325675622387458957_);" d="M83.999,83.997
							c0,1.893,7.801,2.091,7.584,0C91.368,81.907,83.999,82.106,83.999,83.997z"/>
						<path style="fill:#FFFFFF;" d="M88.017,85.544L88.017,85.544c-1.021,0-2.03-0.141-2.77-0.387
							c-0.856-0.285-1.309-0.686-1.309-1.16c0-1.015,1.968-1.546,3.911-1.546c1.81,0,3.685,0.477,3.794,1.542
							c0.028,0.274-0.072,0.522-0.301,0.738C90.804,85.24,89.561,85.544,88.017,85.544z M87.85,82.556
							c-1.837,0-3.79,0.505-3.79,1.441c0,0.938,2.038,1.442,3.956,1.442c1.489,0,2.729-0.299,3.238-0.779
							c0.204-0.192,0.295-0.414,0.27-0.657C91.42,83.003,89.604,82.556,87.85,82.556z"/>
					</g>
					<g style="opacity:0.7;">
						
							<linearGradient id="SVGID_00000142158034719306590260000001443001356590206609_" gradientUnits="userSpaceOnUse" x1="16.2094" y1="86.1154" x2="16.2094" y2="71.2902">
							<stop  offset="0" style="stop-color:#F3FAFD"/>
							<stop  offset="0.3586" style="stop-color:#FFFFFF"/>
							<stop  offset="0.6851" style="stop-color:#9EDBF3"/>
						</linearGradient>
						<path style="fill:url(#SVGID_00000142158034719306590260000001443001356590206609_);" d="M14.065,79.442
							c-0.052-0.807,4.781-0.429,4.247,0.435C17.778,80.739,14.141,80.629,14.065,79.442z"/>
						<path style="fill:#FFFFFF;" d="M16.412,80.494c-1.127,0-2.362-0.328-2.408-1.049c-0.004-0.078,0.027-0.15,0.097-0.213
							c0.273-0.25,1.048-0.287,1.485-0.287c1.145,0,2.497,0.239,2.774,0.64c0.069,0.101,0.071,0.21,0.006,0.316
							C18.143,80.262,17.376,80.494,16.412,80.494z M15.586,79.05c-0.701,0-1.224,0.096-1.397,0.255
							c-0.046,0.042-0.066,0.086-0.063,0.135c0.039,0.624,1.18,0.95,2.286,0.95c0.92,0,1.645-0.211,1.847-0.537
							c0.047-0.075,0.046-0.146-0.002-0.214C18.013,79.286,16.678,79.05,15.586,79.05z"/>
					</g>
					<g style="opacity:0.4;">
						
							<linearGradient id="SVGID_00000031201890354849849320000004160840690696123287_" gradientUnits="userSpaceOnUse" x1="45.0117" y1="85.7357" x2="45.0117" y2="67.9201">
							<stop  offset="0" style="stop-color:#F3FAFD"/>
							<stop  offset="0.3586" style="stop-color:#FFFFFF"/>
							<stop  offset="0.6851" style="stop-color:#9EDBF3"/>
						</linearGradient>
						<path style="fill:url(#SVGID_00000031201890354849849320000004160840690696123287_);" d="M42.813,77.973
							c0.007-0.942,4.398-1.16,4.398,0C47.211,79.134,42.801,79.327,42.813,77.973z"/>
						<path style="fill:#FFFFFF;" d="M44.881,78.97c-0.832,0-1.533-0.178-1.875-0.476c-0.171-0.148-0.256-0.323-0.255-0.521
							c0.005-0.547,1.256-0.843,2.432-0.843c0.964,0,2.09,0.221,2.09,0.843C47.272,78.62,46.04,78.97,44.881,78.97z M45.183,77.234
							c-1.108,0-2.307,0.282-2.31,0.739c-0.001,0.169,0.072,0.319,0.22,0.446c0.319,0.279,0.989,0.444,1.789,0.444
							c1.116,0,2.271-0.333,2.271-0.892C47.151,77.633,46.636,77.234,45.183,77.234z"/>
					</g>
					<g style="opacity:0.7;">
						
							<linearGradient id="SVGID_00000087406845658567753390000003788731311926109068_" gradientUnits="userSpaceOnUse" x1="76.5074" y1="92.7163" x2="76.5074" y2="78.8304">
							<stop  offset="0" style="stop-color:#F3FAFD"/>
							<stop  offset="0.3586" style="stop-color:#FFFFFF"/>
							<stop  offset="0.6851" style="stop-color:#9EDBF3"/>
						</linearGradient>
						<path style="fill:url(#SVGID_00000087406845658567753390000003788731311926109068_);" d="M74.593,86.633
							c-0.152-0.903,3.944-0.642,3.831,0C78.31,87.273,74.82,87.983,74.593,86.633z"/>
						<path style="fill:#FFFFFF;" d="M76.104,87.455c-0.925,0-1.482-0.29-1.571-0.814c-0.019-0.109,0.016-0.208,0.101-0.294
							c0.316-0.315,1.234-0.35,1.614-0.35c0.834,0,1.874,0.154,2.157,0.44c0.064,0.064,0.09,0.132,0.077,0.203
							C78.419,87.007,77.308,87.455,76.104,87.455z M76.249,86.102c-0.757,0-1.326,0.117-1.522,0.313
							c-0.063,0.063-0.087,0.132-0.073,0.21c0.105,0.631,0.954,0.725,1.451,0.725c1.077,0,2.204-0.415,2.259-0.725
							c0.007-0.04-0.009-0.079-0.048-0.119C78.09,86.279,77.183,86.102,76.249,86.102z"/>
					</g>
					<g style="opacity:0.7;">
						
							<linearGradient id="SVGID_00000081618912700249922630000010396614319122298762_" gradientUnits="userSpaceOnUse" x1="112.3301" y1="85.8806" x2="112.3301" y2="72.9343">
							<stop  offset="0" style="stop-color:#F3FAFD"/>
							<stop  offset="0.3586" style="stop-color:#FFFFFF"/>
							<stop  offset="0.6851" style="stop-color:#9EDBF3"/>
						</linearGradient>
						<path style="fill:url(#SVGID_00000081618912700249922630000010396614319122298762_);" d="M110.897,80.248
							c0-0.912,2.541-0.658,2.845,0.102C114.046,81.109,110.897,81.16,110.897,80.248z"/>
						<path style="fill:#FFFFFF;" d="M112.468,80.979c-0.414,0-0.802-0.061-1.094-0.17c-0.352-0.131-0.537-0.325-0.537-0.561
							c0-0.392,0.445-0.636,1.161-0.636c0.744,0,1.621,0.27,1.802,0.72c0.043,0.109,0.026,0.214-0.048,0.305
							C113.545,80.889,112.952,80.979,112.468,80.979z M111.998,79.718c-0.244,0-1.04,0.038-1.04,0.53
							c0,0.411,0.76,0.625,1.51,0.625c0.563,0,1.039-0.119,1.186-0.297c0.052-0.063,0.063-0.133,0.031-0.21
							C113.524,79.966,112.684,79.718,111.998,79.718z"/>
					</g>
					<g>
						
							<linearGradient id="SVGID_00000038387770125226927510000014712528057971664035_" gradientUnits="userSpaceOnUse" x1="99.9906" y1="86.5751" x2="99.9906" y2="73.722">
							<stop  offset="0" style="stop-color:#F3FAFD"/>
							<stop  offset="0.3586" style="stop-color:#FFFFFF"/>
							<stop  offset="0.6851" style="stop-color:#9EDBF3"/>
						</linearGradient>
						<path style="fill:url(#SVGID_00000038387770125226927510000014712528057971664035_);" d="M98.334,81.126
							c-0.161-0.903,3.281-0.943,3.318-0.207C101.69,81.655,98.495,82.029,98.334,81.126z"/>
						<path style="fill:#FFFFFF;" d="M99.656,81.709c-0.802,0-1.318-0.215-1.383-0.574c-0.022-0.131,0.019-0.251,0.124-0.356
							c0.313-0.314,1.118-0.427,1.713-0.427c0.783,0,1.583,0.176,1.603,0.565c0.006,0.106-0.045,0.209-0.151,0.304
							C101.208,81.541,100.335,81.709,99.656,81.709z M100.11,80.456c-0.749,0-1.386,0.153-1.62,0.391
							c-0.083,0.083-0.114,0.172-0.096,0.272c0.054,0.305,0.525,0.485,1.262,0.485c0.749,0,1.531-0.195,1.818-0.454
							c0.082-0.075,0.121-0.151,0.117-0.228C101.576,80.616,100.835,80.456,100.11,80.456z"/>
					</g>
					<g style="opacity:0.7;">
						
							<linearGradient id="SVGID_00000076564525816565770020000007769820639492761774_" gradientUnits="userSpaceOnUse" x1="134.7986" y1="90.0435" x2="134.7986" y2="59.5048">
							<stop  offset="0" style="stop-color:#F3FAFD"/>
							<stop  offset="0.3586" style="stop-color:#FFFFFF"/>
							<stop  offset="0.6851" style="stop-color:#9EDBF3"/>
						</linearGradient>
						<path style="fill:url(#SVGID_00000076564525816565770020000007769820639492761774_);" d="M129.964,76.823
							c-0.048-1.962,9.442-1.883,9.666,0C139.854,78.705,130.018,79.022,129.964,76.823z"/>
						<path style="fill:#FFFFFF;" d="M134.618,78.408c-1.243,0-2.385-0.132-3.216-0.372c-0.969-0.28-1.486-0.699-1.499-1.212
							c-0.005-0.213,0.094-0.41,0.294-0.586c0.759-0.671,2.783-0.909,4.425-0.909c2.355,0,4.946,0.466,5.068,1.489
							c0.023,0.2-0.058,0.391-0.24,0.566C138.711,78.092,136.491,78.408,134.618,78.408z M134.622,75.434
							c-2.063,0-3.726,0.336-4.339,0.878c-0.176,0.155-0.264,0.327-0.259,0.51c0.025,1.024,2.325,1.482,4.594,1.482
							c2.184,0,4.134-0.406,4.742-0.989c0.158-0.152,0.229-0.315,0.209-0.486C139.461,75.913,136.998,75.434,134.622,75.434z"/>
					</g>
					<g style="opacity:0.2;">
						
							<linearGradient id="SVGID_00000137106374799364420050000001286347162401768882_" gradientUnits="userSpaceOnUse" x1="150.9305" y1="85.7243" x2="150.9305" y2="70.2514">
							<stop  offset="0" style="stop-color:#F3FAFD"/>
							<stop  offset="0.3586" style="stop-color:#FFFFFF"/>
							<stop  offset="0.6851" style="stop-color:#9EDBF3"/>
						</linearGradient>
						<path style="fill:url(#SVGID_00000137106374799364420050000001286347162401768882_);" d="M148.765,78.991
							c0.083-1.033,4.333-0.851,4.333,0.119C153.098,80.079,148.683,80.023,148.765,78.991z"/>
						<path style="fill:#FFFFFF;" d="M151.043,79.855c-0.754,0-1.776-0.132-2.175-0.501c-0.119-0.11-0.175-0.233-0.163-0.366
							c0.043-0.55,1.113-0.745,2.017-0.745c1.181,0,2.437,0.304,2.437,0.867C153.158,79.625,152.096,79.855,151.043,79.855z
							 M150.722,78.349c-0.918,0-1.861,0.199-1.896,0.646c-0.008,0.104,0.036,0.2,0.131,0.289c0.307,0.284,1.126,0.468,2.087,0.468
							c0.991,0,1.994-0.221,1.994-0.641C153.037,78.64,151.835,78.349,150.722,78.349z"/>
					</g>
					<g style="opacity:0.7;">
						
							<linearGradient id="SVGID_00000096740595766597691980000008262345612276935587_" gradientUnits="userSpaceOnUse" x1="163.1485" y1="89.0876" x2="163.1485" y2="59.415">
							<stop  offset="0" style="stop-color:#F3FAFD"/>
							<stop  offset="0.3586" style="stop-color:#FFFFFF"/>
							<stop  offset="0.6851" style="stop-color:#9EDBF3"/>
						</linearGradient>
						<path style="fill:url(#SVGID_00000096740595766597691980000008262345612276935587_);" d="M158.641,76.098
							c-0.245-1.817,9.013-1.557,9.021,0.099C167.668,77.851,158.982,78.641,158.641,76.098z"/>
						<path style="fill:#FFFFFF;" d="M162.748,77.784c-2.469,0-4.026-0.628-4.168-1.681c-0.025-0.188,0.043-0.364,0.204-0.521
							c0.512-0.497,1.978-0.794,3.92-0.794c2.43,0,5.014,0.493,5.018,1.407c0.001,0.186-0.099,0.366-0.294,0.536
							C166.726,77.342,164.757,77.784,162.748,77.784z M162.704,74.894c-1.88,0-3.348,0.291-3.83,0.759
							c-0.137,0.134-0.195,0.281-0.174,0.439c0.158,1.171,2.194,1.588,4.048,1.588c1.98,0,3.911-0.43,4.594-1.021
							c0.173-0.149,0.259-0.305,0.259-0.462C167.597,75.381,165.108,74.894,162.704,74.894z"/>
					</g>
					<g style="opacity:0.4;">
						
							<linearGradient id="SVGID_00000005241788488389165900000010948914900356607421_" gradientUnits="userSpaceOnUse" x1="146.4933" y1="79.2453" x2="146.4933" y2="63.0617">
							<stop  offset="0" style="stop-color:#F3FAFD"/>
							<stop  offset="0.3586" style="stop-color:#FFFFFF"/>
							<stop  offset="0.6851" style="stop-color:#9EDBF3"/>
						</linearGradient>
						<path style="fill:url(#SVGID_00000005241788488389165900000010948914900356607421_);" d="M144.223,72.311
							c-0.005,1.021,4.502,0.954,4.541,0C148.803,71.356,144.23,71.048,144.223,72.311z"/>
						<path style="fill:#FFFFFF;" d="M146.42,73.105c-0.755,0-1.697-0.119-2.082-0.453c-0.117-0.102-0.176-0.216-0.176-0.341
							c0.004-0.654,1.095-0.888,2.114-0.888c1.037,0,2.017,0.228,2.379,0.553c0.117,0.104,0.174,0.218,0.169,0.337
							C148.802,72.856,147.563,73.105,146.42,73.105z M146.276,71.527c-0.917,0-1.989,0.205-1.992,0.783
							c-0.001,0.097,0.047,0.187,0.14,0.267c0.3,0.261,1.064,0.422,1.996,0.422c1.093,0,2.265-0.242,2.283-0.69
							c0.004-0.09-0.041-0.177-0.135-0.26C148.226,71.741,147.284,71.527,146.276,71.527z"/>
					</g>
					<g style="opacity:0.2;">
						
							<linearGradient id="SVGID_00000123401591400839702890000005091291855616566699_" gradientUnits="userSpaceOnUse" x1="31.8922" y1="93.1177" x2="31.8922" y2="82.7685">
							<stop  offset="0" style="stop-color:#F3FAFD"/>
							<stop  offset="0.3586" style="stop-color:#FFFFFF"/>
							<stop  offset="0.6851" style="stop-color:#9EDBF3"/>
						</linearGradient>
						<path style="fill:url(#SVGID_00000123401591400839702890000005091291855616566699_);" d="M30.297,88.523
							c0-0.541,3.337-0.506,3.185,0.17C33.331,89.368,30.297,89.302,30.297,88.523z"/>
						<path style="fill:#FFFFFF;" d="M32.022,89.209c-0.86,0-1.786-0.214-1.786-0.686c0-0.314,0.81-0.427,1.504-0.427
							c0.634,0,1.467,0.097,1.727,0.369c0.069,0.072,0.094,0.152,0.075,0.237C33.458,89.076,32.671,89.209,32.022,89.209z
							 M31.74,88.201c-0.788,0-1.383,0.139-1.383,0.322c0,0.378,0.857,0.581,1.665,0.581c0.769,0,1.345-0.173,1.4-0.421
							c0.013-0.055-0.004-0.104-0.05-0.151C33.185,88.335,32.528,88.201,31.74,88.201z"/>
					</g>
					<g>
						
							<linearGradient id="SVGID_00000127028451397469856380000010009814227305313943_" gradientUnits="userSpaceOnUse" x1="55.4033" y1="95.7961" x2="55.4033" y2="83.083">
							<stop  offset="0" style="stop-color:#F3FAFD"/>
							<stop  offset="0.3586" style="stop-color:#FFFFFF"/>
							<stop  offset="0.6851" style="stop-color:#9EDBF3"/>
						</linearGradient>
						<path style="fill:url(#SVGID_00000127028451397469856380000010009814227305313943_);" d="M53.392,90.244
							c-0.107-0.837,3.952-0.625,4.024-0.008C57.489,90.855,53.541,91.423,53.392,90.244z"/>
						<path style="fill:#FFFFFF;" d="M55.041,90.982c-1.027,0-1.651-0.267-1.71-0.733c-0.013-0.097,0.022-0.185,0.103-0.263
							c0.324-0.313,1.293-0.347,1.694-0.347c0.946,0,2.301,0.184,2.349,0.592c0.009,0.072-0.024,0.144-0.097,0.214
							C57.069,90.741,56.021,90.982,55.041,90.982z M55.128,89.744c-0.802,0-1.401,0.117-1.604,0.313
							c-0.057,0.055-0.08,0.114-0.072,0.182c0.073,0.578,1.137,0.641,1.59,0.641c0.934,0,1.964-0.231,2.249-0.504
							c0.049-0.047,0.071-0.091,0.065-0.133C57.325,89.977,56.283,89.744,55.128,89.744z"/>
					</g>
					<g>
						
							<linearGradient id="SVGID_00000133530883440427748350000012806522879839656346_" gradientUnits="userSpaceOnUse" x1="177.7065" y1="80.6912" x2="177.7065" y2="69.8965">
							<stop  offset="0" style="stop-color:#F3FAFD"/>
							<stop  offset="0.3586" style="stop-color:#FFFFFF"/>
							<stop  offset="0.6851" style="stop-color:#9EDBF3"/>
						</linearGradient>
						<path style="fill:url(#SVGID_00000133530883440427748350000012806522879839656346_);" d="M176.119,75.891
							c0.054-0.538,3.143-0.541,3.176,0.203C179.328,76.837,176.042,76.634,176.119,75.891z"/>
						<path style="fill:#FFFFFF;" d="M178.014,76.612c-0.657,0-1.511-0.138-1.831-0.439c-0.093-0.089-0.135-0.185-0.124-0.286
							c0.03-0.297,0.762-0.431,1.472-0.431c0.893,0,1.805,0.196,1.825,0.636c0.004,0.092-0.034,0.175-0.113,0.246
							C179.048,76.512,178.601,76.612,178.014,76.612z M177.53,75.562c-0.751,0-1.332,0.144-1.351,0.334
							c-0.008,0.071,0.023,0.142,0.093,0.206c0.249,0.235,0.98,0.406,1.741,0.406c0.546,0,0.972-0.091,1.14-0.242
							c0.058-0.052,0.084-0.107,0.081-0.17C179.218,75.745,178.364,75.562,177.53,75.562z"/>
					</g>
					<g style="opacity:0.4;">
						
							<linearGradient id="SVGID_00000049180765772856775640000006434908295828406184_" gradientUnits="userSpaceOnUse" x1="5.2758" y1="80.373" x2="5.2758" y2="69.3959">
							<stop  offset="0" style="stop-color:#F3FAFD"/>
							<stop  offset="0.3586" style="stop-color:#FFFFFF"/>
							<stop  offset="0.6851" style="stop-color:#9EDBF3"/>
						</linearGradient>
						<path style="fill:url(#SVGID_00000049180765772856775640000006434908295828406184_);" d="M3.882,75.637
							c0-0.81,2.788-0.607,2.788,0C6.67,76.245,3.882,76.448,3.882,75.637z"/>
						<path style="fill:#FFFFFF;" d="M5.129,76.225c-0.632,0-1.308-0.154-1.308-0.588c0-0.433,0.676-0.587,1.308-0.587
							c0.787,0,1.601,0.22,1.601,0.587C6.729,76.005,5.916,76.225,5.129,76.225z M5.129,75.155c-0.547,0-1.187,0.126-1.187,0.481
							c0,0.356,0.64,0.483,1.187,0.483c0.788,0,1.479-0.226,1.479-0.483C6.608,75.38,5.917,75.155,5.129,75.155z"/>
					</g>
					<g style="opacity:0.2;">
						
							<linearGradient id="SVGID_00000037670364938284248830000011395728995929490363_" gradientUnits="userSpaceOnUse" x1="38.4694" y1="88.1076" x2="38.4694" y2="76.7158">
							<stop  offset="0" style="stop-color:#F3FAFD"/>
							<stop  offset="0.3586" style="stop-color:#FFFFFF"/>
							<stop  offset="0.6851" style="stop-color:#9EDBF3"/>
						</linearGradient>
						<path style="fill:url(#SVGID_00000037670364938284248830000011395728995929490363_);" d="M37.274,83.12
							c0-0.643,2.352-0.643,2.39,0C39.702,83.761,37.274,84.133,37.274,83.12z"/>
						<path style="fill:#FFFFFF;" d="M38.289,83.8c-0.673,0-1.074-0.254-1.074-0.68c0-0.367,0.643-0.534,1.24-0.534
							c0.596,0,1.248,0.166,1.27,0.531c0.007,0.106-0.043,0.209-0.148,0.305C39.331,83.645,38.802,83.8,38.289,83.8z M38.455,82.69
							c-0.557,0-1.119,0.147-1.119,0.43c0,0.534,0.729,0.575,0.953,0.575c0.475,0,0.979-0.146,1.199-0.346
							c0.081-0.074,0.12-0.15,0.115-0.228C39.587,82.839,39.013,82.69,38.455,82.69z"/>
					</g>
					<g>
						
							<linearGradient id="SVGID_00000142895769464462008300000014135560198915020172_" gradientUnits="userSpaceOnUse" x1="50.1291" y1="91.0642" x2="50.1291" y2="79.6768">
							<stop  offset="0" style="stop-color:#F3FAFD"/>
							<stop  offset="0.3586" style="stop-color:#FFFFFF"/>
							<stop  offset="0.6851" style="stop-color:#9EDBF3"/>
						</linearGradient>
						<path style="fill:url(#SVGID_00000142895769464462008300000014135560198915020172_);" d="M48.935,86.078
							c0-0.642,2.35-0.642,2.389,0C51.361,86.72,48.935,87.091,48.935,86.078z"/>
						<path style="fill:#FFFFFF;" d="M49.948,86.759c-0.673,0-1.074-0.255-1.074-0.681c0-0.367,0.643-0.534,1.24-0.534
							c0.597,0,1.248,0.167,1.27,0.531c0.007,0.106-0.043,0.209-0.149,0.305C50.99,86.604,50.461,86.759,49.948,86.759z
							 M50.114,85.648c-0.556,0-1.119,0.147-1.119,0.43c0,0.534,0.73,0.576,0.953,0.576c0.475,0,0.979-0.146,1.199-0.347
							c0.081-0.073,0.12-0.15,0.115-0.228C51.246,85.798,50.673,85.648,50.114,85.648z"/>
					</g>
					<g style="opacity:0.4;">
						
							<linearGradient id="SVGID_00000036961234025995835480000001869570476980428716_" gradientUnits="userSpaceOnUse" x1="57.1103" y1="86.0586" x2="57.1103" y2="72.794">
							<stop  offset="0" style="stop-color:#F3FAFD"/>
							<stop  offset="0.3586" style="stop-color:#FFFFFF"/>
							<stop  offset="0.6851" style="stop-color:#9EDBF3"/>
						</linearGradient>
						<path style="fill:url(#SVGID_00000036961234025995835480000001869570476980428716_);" d="M55.403,80.215
							c-0.038-0.812,3.488-0.643,3.413,0.236C58.74,81.329,55.441,81.025,55.403,80.215z"/>
						<path style="fill:#FFFFFF;" d="M57.483,81.034c-1.299,0-2.122-0.425-2.141-0.818c-0.005-0.101,0.037-0.192,0.125-0.271
							c0.217-0.194,0.708-0.307,1.348-0.307c0.698,0,1.559,0.146,1.908,0.472c0.112,0.104,0.164,0.221,0.153,0.346
							C58.846,80.817,58.324,81.034,57.483,81.034z M56.815,79.742c-0.598,0-1.069,0.102-1.26,0.274
							c-0.065,0.06-0.096,0.123-0.092,0.195c0.02,0.423,1.08,0.718,2.02,0.718c0.596,0,1.242-0.127,1.272-0.483
							c0.008-0.094-0.032-0.184-0.121-0.266C58.357,79.923,57.609,79.742,56.815,79.742z"/>
					</g>
					<g style="opacity:0.2;">
						
							<linearGradient id="SVGID_00000096749720500788184420000005644158409038170280_" gradientUnits="userSpaceOnUse" x1="71.458" y1="80.5333" x2="71.458" y2="72.1363">
							<stop  offset="0" style="stop-color:#F3FAFD"/>
							<stop  offset="0.3586" style="stop-color:#FFFFFF"/>
							<stop  offset="0.6851" style="stop-color:#9EDBF3"/>
						</linearGradient>
						<path style="fill:url(#SVGID_00000096749720500788184420000005644158409038170280_);" d="M69.979,76.761
							c0.068-0.449,3.071-0.271,2.957,0.203C72.823,77.437,69.865,77.504,69.979,76.761z"/>
						<path style="fill:#FFFFFF;" d="M71.497,77.372c-0.266,0-1.159-0.024-1.476-0.337c-0.084-0.083-0.118-0.178-0.103-0.281
							c0.04-0.265,0.746-0.305,1.164-0.305c0.737,0,1.641,0.127,1.861,0.362c0.048,0.05,0.065,0.106,0.052,0.163
							C72.931,77.248,72.173,77.372,71.497,77.372z M71.083,76.555c-0.695,0-1.028,0.11-1.044,0.213
							c-0.012,0.073,0.013,0.139,0.073,0.198c0.188,0.187,0.719,0.302,1.385,0.302c0.72,0,1.339-0.142,1.381-0.314
							c0.004-0.016,0.005-0.041-0.027-0.076C72.683,76.699,71.89,76.555,71.083,76.555z"/>
					</g>
					<g style="opacity:0.4;">
						
							<linearGradient id="SVGID_00000084490589909919179290000001467562711179216777_" gradientUnits="userSpaceOnUse" x1="89.1025" y1="82.7224" x2="89.1025" y2="68.9483">
							<stop  offset="0" style="stop-color:#F3FAFD"/>
							<stop  offset="0.3586" style="stop-color:#FFFFFF"/>
							<stop  offset="0.6851" style="stop-color:#9EDBF3"/>
						</linearGradient>
						<path style="fill:url(#SVGID_00000084490589909919179290000001467562711179216777_);" d="M86.944,76.616
							c-0.004-0.726,4.316-0.66,4.316,0.118C91.262,77.512,86.951,77.898,86.944,76.616z"/>
						<path style="fill:#FFFFFF;" d="M88.898,77.504c-1.259,0-2.012-0.332-2.015-0.888c-0.001-0.075,0.035-0.145,0.107-0.207
							c0.299-0.26,1.185-0.352,1.913-0.352c1.164,0,2.418,0.212,2.418,0.678c0,0.221-0.275,0.415-0.795,0.563
							C90.067,77.429,89.474,77.504,88.898,77.504z M88.904,76.162c-0.885,0-1.603,0.125-1.827,0.32
							c-0.049,0.043-0.072,0.086-0.072,0.134c0.003,0.577,0.98,0.782,1.894,0.782c0.563,0,1.144-0.073,1.591-0.2
							C90.94,77.069,91.2,76.9,91.2,76.734C91.2,76.376,90.032,76.162,88.904,76.162z"/>
					</g>
					<g style="opacity:0.4;">
						
							<linearGradient id="SVGID_00000077282730255738992080000006255177838564715705_" gradientUnits="userSpaceOnUse" x1="116.1374" y1="79.2064" x2="116.1374" y2="67.293">
							<stop  offset="0" style="stop-color:#F3FAFD"/>
							<stop  offset="0.3586" style="stop-color:#FFFFFF"/>
							<stop  offset="0.6851" style="stop-color:#9EDBF3"/>
						</linearGradient>
						<path style="fill:url(#SVGID_00000077282730255738992080000006255177838564715705_);" d="M114.927,74.066
							c0.003-0.597,2.308-0.932,2.418,0C117.454,74.999,114.922,74.664,114.927,74.066z"/>
						<path style="fill:#FFFFFF;" d="M116.37,74.699c-0.543,0-1.115-0.156-1.363-0.371c-0.095-0.082-0.142-0.17-0.142-0.262
							c0.003-0.373,0.749-0.633,1.418-0.633c0.655,0,1.075,0.235,1.121,0.628c0.019,0.153-0.027,0.283-0.137,0.388
							C117.099,74.61,116.78,74.699,116.37,74.699z M116.283,73.539c-0.665,0-1.295,0.257-1.296,0.528
							c0,0.063,0.035,0.126,0.105,0.187c0.227,0.197,0.765,0.341,1.277,0.341c0.375,0,0.662-0.077,0.808-0.217
							c0.084-0.081,0.12-0.184,0.107-0.306C117.226,73.578,116.503,73.539,116.283,73.539z"/>
					</g>
					<g style="opacity:0.4;">
						
							<linearGradient id="SVGID_00000068652887992782063880000015801496566397089413_" gradientUnits="userSpaceOnUse" x1="21.8623" y1="80.7009" x2="21.8623" y2="69.3852">
							<stop  offset="0" style="stop-color:#F3FAFD"/>
							<stop  offset="0.3586" style="stop-color:#FFFFFF"/>
							<stop  offset="0.6851" style="stop-color:#9EDBF3"/>
						</linearGradient>
						<path style="fill:url(#SVGID_00000068652887992782063880000015801496566397089413_);" d="M20.266,75.637
							c0-0.404,3.201-0.641,3.193,0.187C23.451,76.651,20.266,76.499,20.266,75.637z"/>
						<path style="fill:#FFFFFF;" d="M22.096,76.422c-0.916,0-1.891-0.274-1.891-0.785c0-0.287,1.02-0.421,1.709-0.421
							c0.33,0,1.135,0.031,1.463,0.316c0.096,0.084,0.144,0.182,0.143,0.291C23.516,76.266,22.75,76.422,22.096,76.422z
							 M21.914,75.32c-0.921,0-1.588,0.189-1.588,0.316c0,0.427,0.9,0.681,1.769,0.681c0.647,0,1.3-0.153,1.303-0.494
							c0.001-0.082-0.034-0.153-0.107-0.217C23.082,75.425,22.58,75.32,21.914,75.32z"/>
					</g>
					<g style="opacity:0.1;">
						
							<linearGradient id="SVGID_00000143578329549840631690000009897457972244809882_" gradientUnits="userSpaceOnUse" x1="81.6885" y1="75.197" x2="81.6885" y2="63.1423">
							<stop  offset="0" style="stop-color:#F3FAFD"/>
							<stop  offset="0.3586" style="stop-color:#FFFFFF"/>
							<stop  offset="0.6851" style="stop-color:#9EDBF3"/>
						</linearGradient>
						<path style="fill:url(#SVGID_00000143578329549840631690000009897457972244809882_);" d="M79.952,70.014
							c-0.19-0.85,3.243-0.761,3.47,0C83.65,70.773,80.123,70.773,79.952,70.014z"/>
						<path style="fill:#FFFFFF;" d="M81.837,70.636c-0.87,0-1.85-0.191-1.944-0.612c-0.026-0.116,0.006-0.222,0.093-0.314
							c0.211-0.22,0.762-0.352,1.474-0.352c0.909,0,1.896,0.221,2.022,0.643c0.029,0.1,0.007,0.19-0.066,0.273
							C83.175,70.54,82.442,70.636,81.837,70.636z M81.459,69.462c-0.666,0-1.194,0.12-1.379,0.314
							c-0.065,0.067-0.087,0.143-0.068,0.227c0.077,0.347,0.977,0.528,1.825,0.528c0.725,0,1.307-0.127,1.482-0.322
							c0.05-0.057,0.064-0.115,0.045-0.183C83.258,69.673,82.313,69.462,81.459,69.462z"/>
					</g>
					<g style="opacity:0.4;">
						
							<linearGradient id="SVGID_00000012469733783434158160000008373966077547435157_" gradientUnits="userSpaceOnUse" x1="54.8104" y1="75.2802" x2="54.8104" y2="62.8152">
							<stop  offset="0" style="stop-color:#F3FAFD"/>
							<stop  offset="0.3586" style="stop-color:#FFFFFF"/>
							<stop  offset="0.6851" style="stop-color:#9EDBF3"/>
						</linearGradient>
						<path style="fill:url(#SVGID_00000012469733783434158160000008373966077547435157_);" d="M53.431,69.996
							c0.373-0.939,2.333-0.929,2.732,0C56.56,70.925,53.276,70.386,53.431,69.996z"/>
						<path style="fill:#FFFFFF;" d="M55.293,70.563c-0.689,0-1.686-0.198-1.889-0.443c-0.048-0.058-0.043-0.108-0.03-0.14
							c0.177-0.447,0.729-0.736,1.407-0.736c0.682,0,1.246,0.289,1.438,0.734c0.058,0.135,0.048,0.252-0.027,0.346
							C56.032,70.521,55.615,70.563,55.293,70.563z M54.781,69.348c-0.625,0-1.133,0.261-1.293,0.666
							c-0.002,0.005-0.007,0.018,0.015,0.044c0.144,0.175,1.038,0.4,1.79,0.4c0.414,0,0.698-0.069,0.799-0.195
							c0.053-0.065,0.057-0.147,0.013-0.248C55.932,69.609,55.412,69.348,54.781,69.348z"/>
					</g>
					<g style="opacity:0.4;">
						
							<linearGradient id="SVGID_00000008134307180175724790000016963711188423209905_" gradientUnits="userSpaceOnUse" x1="105.4257" y1="71.8242" x2="105.4257" y2="63.1325">
							<stop  offset="0" style="stop-color:#F3FAFD"/>
							<stop  offset="0.3586" style="stop-color:#FFFFFF"/>
							<stop  offset="0.6851" style="stop-color:#9EDBF3"/>
						</linearGradient>
						<path style="fill:url(#SVGID_00000008134307180175724790000016963711188423209905_);" d="M104.289,68.002
							c0.016-0.175,2.274-0.693,2.274,0C106.563,68.695,104.231,68.63,104.289,68.002z"/>
						<path style="fill:#FFFFFF;" d="M105.447,68.55c-0.386,0-0.878-0.075-1.106-0.288c-0.084-0.078-0.122-0.167-0.112-0.264
							c0.016-0.177,1.013-0.399,1.612-0.399c0.647,0,0.783,0.22,0.783,0.403C106.624,68.381,106.032,68.55,105.447,68.55z
							 M105.841,67.703c-0.645,0-1.438,0.229-1.494,0.312c-0.004,0.059,0.022,0.119,0.083,0.176
							c0.166,0.155,0.565,0.255,1.017,0.255c0.509,0,1.056-0.139,1.056-0.443C106.503,67.756,106.143,67.703,105.841,67.703z"/>
					</g>
					<g style="opacity:0.1;">
						
							<linearGradient id="SVGID_00000157289394589838563160000013471442294961324932_" gradientUnits="userSpaceOnUse" x1="135.3454" y1="73.1343" x2="135.3454" y2="60.2056">
							<stop  offset="0" style="stop-color:#F3FAFD"/>
							<stop  offset="0.3586" style="stop-color:#FFFFFF"/>
							<stop  offset="0.6851" style="stop-color:#9EDBF3"/>
						</linearGradient>
						<path style="fill:url(#SVGID_00000157289394589838563160000013471442294961324932_);" d="M132.903,67.557
							c0.227-0.938,4.892-0.734,4.892,0C137.795,68.291,132.675,68.495,132.903,67.557z"/>
						<path style="fill:#FFFFFF;" d="M135.037,68.238c-1.079,0-1.869-0.154-2.113-0.414c-0.077-0.083-0.104-0.177-0.081-0.278
							c0.121-0.495,1.306-0.671,2.375-0.671c1.278,0,2.639,0.239,2.639,0.682C137.856,68.053,136.127,68.238,135.037,68.238z
							 M135.218,66.98c-1.284,0-2.169,0.23-2.256,0.588c-0.017,0.069,0.002,0.132,0.057,0.191c0.218,0.231,0.991,0.375,2.019,0.375
							c1.438,0,2.697-0.27,2.697-0.577C137.734,67.244,136.582,66.98,135.218,66.98z"/>
					</g>
					<g style="opacity:0.1;">
						
							<linearGradient id="SVGID_00000142143239078345224400000015653954631337539221_" gradientUnits="userSpaceOnUse" x1="160.6517" y1="73.3167" x2="160.6517" y2="64.2063">
							<stop  offset="0" style="stop-color:#F3FAFD"/>
							<stop  offset="0.3586" style="stop-color:#FFFFFF"/>
							<stop  offset="0.6851" style="stop-color:#9EDBF3"/>
						</linearGradient>
						<path style="fill:url(#SVGID_00000142143239078345224400000015653954631337539221_);" d="M159.621,69.409
							c0-0.759,1.814-0.469,2.045,0C161.896,69.878,159.621,70.056,159.621,69.409z"/>
						<path style="fill:#FFFFFF;" d="M160.604,69.883c-0.505,0-1.044-0.125-1.044-0.474c0-0.324,0.313-0.518,0.835-0.518
							c0.523,0,1.18,0.2,1.327,0.498c0.034,0.07,0.026,0.141-0.021,0.204C161.548,69.792,161.024,69.883,160.604,69.883z
							 M160.395,68.995c-0.215,0-0.713,0.041-0.713,0.414c0,0.273,0.497,0.368,0.922,0.368c0.461,0,0.89-0.104,0.995-0.242
							c0.026-0.034,0.03-0.067,0.012-0.105C161.498,69.202,160.919,68.995,160.395,68.995z"/>
					</g>
					<g>
						
							<linearGradient id="SVGID_00000166636178787437508720000012097020634487296154_" gradientUnits="userSpaceOnUse" x1="174.2421" y1="74.6237" x2="174.2421" y2="68.5248">
							<stop  offset="0" style="stop-color:#F3FAFD"/>
							<stop  offset="0.3586" style="stop-color:#FFFFFF"/>
							<stop  offset="0.6851" style="stop-color:#9EDBF3"/>
						</linearGradient>
						<path style="fill:url(#SVGID_00000166636178787437508720000012097020634487296154_);" d="M173.236,71.973
							c-0.029-0.332,2.086-0.405,2.01,0C175.17,72.378,173.273,72.412,173.236,71.973z"/>
						<path style="fill:#FFFFFF;" d="M174.198,72.342c-0.458,0-0.999-0.096-1.022-0.365c-0.003-0.029,0.005-0.074,0.053-0.119
							c0.159-0.147,0.67-0.215,1.106-0.215c0.22,0,0.752,0.02,0.921,0.191c0.043,0.043,0.06,0.094,0.05,0.146
							C175.26,72.23,174.716,72.342,174.198,72.342z M174.335,71.748c-0.469,0-0.906,0.077-1.018,0.181
							c-0.023,0.021-0.02,0.035-0.02,0.04c0.013,0.155,0.392,0.269,0.901,0.269c0.525,0,0.959-0.12,0.987-0.273
							c0.005-0.022-0.002-0.043-0.022-0.063C175.072,71.809,174.746,71.748,174.335,71.748z"/>
					</g>
					<g style="opacity:0.4;">
						
							<linearGradient id="SVGID_00000066501726200401131620000002140801093453347250_" gradientUnits="userSpaceOnUse" x1="148.8319" y1="69.3732" x2="148.8319" y2="63.1738">
							<stop  offset="0" style="stop-color:#F3FAFD"/>
							<stop  offset="0.3586" style="stop-color:#FFFFFF"/>
							<stop  offset="0.6851" style="stop-color:#9EDBF3"/>
						</linearGradient>
						<path style="fill:url(#SVGID_00000066501726200401131620000002140801093453347250_);" d="M147.979,66.602
							c0-0.378,1.668-0.181,1.706,0.17C149.723,67.121,147.979,67.075,147.979,66.602z"/>
						<path style="fill:#FFFFFF;" d="M149.014,67.053c-0.545,0-1.097-0.155-1.097-0.451c0-0.163,0.222-0.257,0.607-0.257
							c0.48,0,1.191,0.15,1.221,0.422c0.005,0.049-0.013,0.095-0.055,0.134C149.545,67.038,149.17,67.053,149.014,67.053z
							 M148.524,66.449c-0.295,0-0.485,0.06-0.485,0.152c0,0.217,0.496,0.347,0.975,0.347c0.281,0,0.511-0.047,0.587-0.118
							c0.023-0.023,0.025-0.041,0.023-0.054C149.607,66.618,149.042,66.449,148.524,66.449z"/>
					</g>
					<g style="opacity:0.4;">
						
							<linearGradient id="SVGID_00000127722173283651672060000013923854166778421390_" gradientUnits="userSpaceOnUse" x1="68.3605" y1="85.0676" x2="68.3605" y2="63.7541">
							<stop  offset="0" style="stop-color:#F3FAFD"/>
							<stop  offset="0.3586" style="stop-color:#FFFFFF"/>
							<stop  offset="0.6851" style="stop-color:#9EDBF3"/>
						</linearGradient>
						<path style="fill:url(#SVGID_00000127722173283651672060000013923854166778421390_);" d="M65.264,75.772
							c-0.029-0.998,5.761-1.478,6.175,0C71.854,77.249,65.31,77.331,65.264,75.772z"/>
						<path style="fill:#FFFFFF;" d="M68.46,76.963c-1.552,0-3.232-0.372-3.257-1.189c-0.003-0.109,0.052-0.215,0.164-0.313
							c0.442-0.393,1.806-0.678,3.241-0.678c1.638,0,2.718,0.365,2.89,0.977c0.052,0.185,0.007,0.355-0.134,0.51
							C70.98,76.69,69.841,76.963,68.46,76.963z M68.608,74.887c-1.384,0-2.74,0.277-3.155,0.647
							c-0.088,0.077-0.132,0.158-0.129,0.237c0.016,0.523,1.003,1.087,3.136,1.087c1.345,0,2.447-0.256,2.809-0.653
							c0.116-0.128,0.153-0.269,0.111-0.42C71.194,75.122,69.826,74.887,68.608,74.887z"/>
					</g>
					<g style="opacity:0.2;">
						
							<linearGradient id="SVGID_00000066504460800981469980000006822810877315670675_" gradientUnits="userSpaceOnUse" x1="33.9768" y1="83.373" x2="33.9768" y2="62.0073">
							<stop  offset="0" style="stop-color:#F3FAFD"/>
							<stop  offset="0.3586" style="stop-color:#FFFFFF"/>
							<stop  offset="0.6851" style="stop-color:#9EDBF3"/>
						</linearGradient>
						<path style="fill:url(#SVGID_00000066504460800981469980000006822810877315670675_);" d="M31.586,73.932
							c0-1.148,4.627-1.149,4.778,0.405C36.517,75.891,31.586,75.079,31.586,73.932z"/>
						<path style="fill:#FFFFFF;" d="M34.778,75.249c-1.311,0-3.253-0.554-3.253-1.317c0-0.597,1.103-0.869,2.128-0.869
							c1.275,0,2.687,0.397,2.771,1.27c0.021,0.213-0.047,0.395-0.2,0.539C35.892,75.184,35.255,75.249,34.778,75.249z
							 M33.653,73.168c-0.997,0-2.007,0.262-2.007,0.764c0,0.642,1.752,1.212,3.132,1.212c0.639,0,1.121-0.122,1.356-0.343
							c0.13-0.123,0.188-0.277,0.169-0.46C36.226,73.535,34.875,73.168,33.653,73.168z"/>
					</g>
					<g style="opacity:0.4;">
						
							<linearGradient id="SVGID_00000013905189931288938030000009060983494006717885_" gradientUnits="userSpaceOnUse" x1="1.9946" y1="78.4121" x2="1.9946" y2="62.6693">
							<stop  offset="0" style="stop-color:#F3FAFD"/>
							<stop  offset="0.3586" style="stop-color:#FFFFFF"/>
							<stop  offset="0.6851" style="stop-color:#9EDBF3"/>
						</linearGradient>
						<path style="fill:url(#SVGID_00000013905189931288938030000009060983494006717885_);" d="M0.108,71.432
							c0.151-1.08,3.906-0.473,3.773,0.406C3.749,72.716-0.043,72.513,0.108,71.432z"/>
						<path style="fill:#FFFFFF;" d="M2.324,72.439c-0.761,0-1.705-0.172-2.098-0.556c-0.142-0.138-0.201-0.292-0.179-0.458
							c0.056-0.397,0.562-0.624,1.389-0.624c0.823,0,1.927,0.246,2.347,0.66c0.125,0.123,0.179,0.252,0.158,0.383
							C3.876,72.282,3.063,72.439,2.324,72.439z M1.436,70.906c-0.358,0-1.2,0.052-1.268,0.532c-0.02,0.135,0.03,0.262,0.149,0.376
							c0.367,0.359,1.272,0.521,2.007,0.521c0.708,0,1.445-0.156,1.498-0.505c0.015-0.099-0.029-0.2-0.131-0.3
							C3.342,71.186,2.33,70.906,1.436,70.906z"/>
					</g>
					<g style="opacity:0.4;">
						
							<linearGradient id="SVGID_00000075862831447428408380000012177854794128270003_" gradientUnits="userSpaceOnUse" x1="100.9403" y1="80.0858" x2="100.9403" y2="64.0396">
							<stop  offset="0" style="stop-color:#F3FAFD"/>
							<stop  offset="0.3586" style="stop-color:#FFFFFF"/>
							<stop  offset="0.6851" style="stop-color:#9EDBF3"/>
						</linearGradient>
						<path style="fill:url(#SVGID_00000075862831447428408380000012177854794128270003_);" d="M98.328,73.052
							c0.028-0.971,5.05-0.813,5.221,0C103.72,73.864,98.285,74.569,98.328,73.052z"/>
						<path style="fill:#FFFFFF;" d="M100.421,73.997c-0.916,0-1.6-0.158-1.925-0.446c-0.157-0.139-0.233-0.308-0.228-0.5
							c0.015-0.532,1.273-0.722,2.447-0.722c1.363,0,2.794,0.245,2.893,0.713c0.019,0.087-0.014,0.175-0.096,0.258
							C103.148,73.678,101.732,73.997,100.421,73.997z M100.716,72.435c-1.381,0-2.316,0.248-2.326,0.618
							c-0.005,0.164,0.06,0.307,0.193,0.425c0.302,0.267,0.955,0.415,1.838,0.415c1.258,0,2.66-0.309,2.999-0.659
							c0.059-0.061,0.081-0.117,0.069-0.172C103.417,72.715,102.173,72.435,100.716,72.435z"/>
					</g>
					<g style="opacity:0.4;">
						
							<linearGradient id="SVGID_00000009549317321751379930000002401012002465488564_" gradientUnits="userSpaceOnUse" x1="127.3275" y1="78.116" x2="127.3275" y2="63.4301">
							<stop  offset="0" style="stop-color:#F3FAFD"/>
							<stop  offset="0.3586" style="stop-color:#FFFFFF"/>
							<stop  offset="0.6851" style="stop-color:#9EDBF3"/>
						</linearGradient>
						<path style="fill:url(#SVGID_00000009549317321751379930000002401012002465488564_);" d="M125.052,71.695
							c-0.034-0.721,4.552-0.952,4.552,0C129.604,72.647,125.109,72.871,125.052,71.695z"/>
						<path style="fill:#FFFFFF;" d="M127.173,72.548c-0.987,0-2.151-0.223-2.181-0.85c-0.005-0.076,0.032-0.148,0.106-0.216
							c0.342-0.309,1.491-0.47,2.45-0.47c1.023,0,2.115,0.179,2.115,0.683C129.664,72.249,128.38,72.548,127.173,72.548z
							 M127.549,71.117c-1.07,0-2.086,0.188-2.363,0.438c-0.051,0.046-0.074,0.091-0.072,0.138c0.026,0.554,1.126,0.75,2.06,0.75
							c1.14,0,2.37-0.286,2.37-0.748C129.543,71.345,128.76,71.117,127.549,71.117z"/>
					</g>
					<g style="opacity:0.1;">
						
							<linearGradient id="SVGID_00000006708099481308027420000013921363361887478700_" gradientUnits="userSpaceOnUse" x1="175.5803" y1="75.3284" x2="175.5803" y2="57.5039">
							<stop  offset="0" style="stop-color:#F3FAFD"/>
							<stop  offset="0.3586" style="stop-color:#FFFFFF"/>
							<stop  offset="0.6851" style="stop-color:#9EDBF3"/>
						</linearGradient>
						<path style="fill:url(#SVGID_00000006708099481308027420000013921363361887478700_);" d="M172.837,67.557
							c0-0.837,5.008-1.24,5.462,0C178.754,68.797,172.837,68.85,172.837,67.557z"/>
						<path style="fill:#FFFFFF;" d="M175.694,68.56c-1.404,0-2.917-0.314-2.917-1.003c0-0.518,1.554-0.839,2.992-0.839
							c1.431,0,2.398,0.308,2.587,0.823c0.056,0.15,0.029,0.292-0.079,0.42C177.903,68.402,176.652,68.56,175.694,68.56z
							 M175.77,66.823c-1.502,0-2.87,0.35-2.87,0.733c0,0.589,1.406,0.897,2.795,0.897c1.205,0,2.203-0.223,2.485-0.556
							c0.085-0.1,0.105-0.207,0.061-0.326C178.039,67.02,176.832,66.823,175.77,66.823z"/>
					</g>
					<g style="opacity:0.1;">
						
							<linearGradient id="SVGID_00000006671515346829208720000000039117668755146369_" gradientUnits="userSpaceOnUse" x1="115.8818" y1="73.0047" x2="115.8818" y2="63.3121">
							<stop  offset="0" style="stop-color:#F3FAFD"/>
							<stop  offset="0.3586" style="stop-color:#FFFFFF"/>
							<stop  offset="0.6851" style="stop-color:#9EDBF3"/>
						</linearGradient>
						<path style="fill:url(#SVGID_00000006671515346829208720000000039117668755146369_);" d="M114.415,68.73
							c0-0.541,2.869-0.507,2.933,0.135C117.411,69.507,114.415,69.405,114.415,68.73z"/>
						<path style="fill:#FFFFFF;" d="M116.102,69.348c-0.702,0-1.747-0.165-1.747-0.618c0-0.318,0.726-0.431,1.348-0.431
							c0.795,0,1.668,0.176,1.706,0.562c0.008,0.08-0.023,0.154-0.092,0.219C117.138,69.247,116.684,69.348,116.102,69.348z
							 M115.702,68.403c-0.699,0-1.228,0.141-1.228,0.326c0,0.317,0.845,0.514,1.627,0.514c0.54,0,0.972-0.09,1.126-0.234
							c0.045-0.043,0.064-0.089,0.06-0.14C117.257,68.566,116.448,68.403,115.702,68.403z"/>
					</g>
					<g style="opacity:0.1;">
						
							<linearGradient id="SVGID_00000073704214128150080400000002090190854465258400_" gradientUnits="userSpaceOnUse" x1="125.7854" y1="67.1496" x2="125.7854" y2="62.3052">
							<stop  offset="0" style="stop-color:#F3FAFD"/>
							<stop  offset="0.3586" style="stop-color:#FFFFFF"/>
							<stop  offset="0.6851" style="stop-color:#9EDBF3"/>
						</linearGradient>
						<path style="fill:url(#SVGID_00000073704214128150080400000002090190854465258400_);" d="M125.052,65.013
							c0-0.271,1.438-0.253,1.467,0.067C126.551,65.401,125.052,65.351,125.052,65.013z"/>
						<path style="fill:#FFFFFF;" d="M125.896,65.349c-0.363,0-0.905-0.09-0.905-0.336c0-0.178,0.364-0.241,0.705-0.241
							c0.317,0,0.86,0.064,0.885,0.305c0.003,0.047-0.015,0.092-0.055,0.13C126.39,65.334,126.04,65.349,125.896,65.349z
							 M125.696,64.876c-0.35,0-0.584,0.071-0.584,0.137c0,0.125,0.359,0.23,0.784,0.23c0.258,0,0.47-0.043,0.54-0.108
							c0.022-0.021,0.024-0.038,0.022-0.05C126.447,64.97,126.105,64.876,125.696,64.876z"/>
					</g>
					<g style="opacity:0.2;">
						
							<linearGradient id="SVGID_00000105423781779118847850000008783691090330814080_" gradientUnits="userSpaceOnUse" x1="145.5524" y1="65.3787" x2="145.5524" y2="60.5313">
							<stop  offset="0" style="stop-color:#F3FAFD"/>
							<stop  offset="0.3586" style="stop-color:#FFFFFF"/>
							<stop  offset="0.6851" style="stop-color:#9EDBF3"/>
						</linearGradient>
						<path style="fill:url(#SVGID_00000105423781779118847850000008783691090330814080_);" d="M144.818,63.241
							c0-0.271,1.437-0.254,1.468,0.066C146.317,63.629,144.818,63.579,144.818,63.241z"/>
						<path style="fill:#FFFFFF;" d="M145.662,63.576c-0.363,0-0.903-0.09-0.903-0.335c0-0.179,0.363-0.242,0.704-0.242
							c0.317,0,0.86,0.064,0.884,0.305c0.004,0.048-0.015,0.092-0.054,0.13C146.155,63.563,145.807,63.576,145.662,63.576z
							 M145.463,63.104c-0.349,0-0.583,0.071-0.583,0.138c0,0.122,0.365,0.229,0.782,0.229c0.259,0,0.471-0.042,0.541-0.108
							c0.023-0.021,0.023-0.038,0.023-0.05C146.214,63.197,145.872,63.104,145.463,63.104z"/>
					</g>
					<g style="opacity:0.1;">
						
							<linearGradient id="SVGID_00000002367369230148134320000007913754685731389067_" gradientUnits="userSpaceOnUse" x1="159.6208" y1="66.2209" x2="159.6208" y2="61.3764">
							<stop  offset="0" style="stop-color:#F3FAFD"/>
							<stop  offset="0.3586" style="stop-color:#FFFFFF"/>
							<stop  offset="0.6851" style="stop-color:#9EDBF3"/>
						</linearGradient>
						<path style="fill:url(#SVGID_00000002367369230148134320000007913754685731389067_);" d="M158.887,64.084
							c0-0.271,1.436-0.253,1.468,0.067C160.386,64.473,158.887,64.422,158.887,64.084z"/>
						<path style="fill:#FFFFFF;" d="M159.731,64.419c-0.364,0-0.905-0.089-0.905-0.335c0-0.179,0.364-0.241,0.705-0.241
							c0.317,0,0.859,0.063,0.884,0.305c0.005,0.047-0.014,0.092-0.055,0.13C160.225,64.405,159.875,64.419,159.731,64.419z
							 M159.531,63.947c-0.349,0-0.583,0.071-0.583,0.137c0,0.125,0.358,0.23,0.783,0.23c0.258,0,0.47-0.043,0.54-0.108
							c0.022-0.021,0.024-0.038,0.022-0.05C160.283,64.041,159.94,63.947,159.531,63.947z"/>
					</g>
					<g style="opacity:0.1;">
						
							<linearGradient id="SVGID_00000023969905856652001570000006004955749514746273_" gradientUnits="userSpaceOnUse" x1="59.6929" y1="70.8787" x2="59.6929" y2="61.1903">
							<stop  offset="0" style="stop-color:#F3FAFD"/>
							<stop  offset="0.3586" style="stop-color:#FFFFFF"/>
							<stop  offset="0.6851" style="stop-color:#9EDBF3"/>
						</linearGradient>
						<path style="fill:url(#SVGID_00000023969905856652001570000006004955749514746273_);" d="M58.226,66.605
							c0-0.541,2.871-0.507,2.934,0.135C61.222,67.382,58.226,67.281,58.226,66.605z"/>
						<path style="fill:#FFFFFF;" d="M59.914,67.224c-0.703,0-1.749-0.165-1.749-0.618c0-0.318,0.727-0.431,1.348-0.431
							c0.796,0,1.67,0.176,1.707,0.562c0.008,0.08-0.022,0.154-0.092,0.219C60.949,67.123,60.495,67.224,59.914,67.224z
							 M59.513,66.279c-0.699,0-1.227,0.141-1.227,0.326c0,0.316,0.845,0.514,1.628,0.514c0.54,0,0.971-0.091,1.125-0.235
							c0.046-0.043,0.065-0.088,0.06-0.139C61.069,66.442,60.26,66.279,59.513,66.279z"/>
					</g>
					<g style="opacity:0.1;">
						
							<linearGradient id="SVGID_00000036209373283399005920000015736656361501461946_" gradientUnits="userSpaceOnUse" x1="29.7634" y1="74.0184" x2="29.7634" y2="63.1037">
							<stop  offset="0" style="stop-color:#F3FAFD"/>
							<stop  offset="0.3586" style="stop-color:#FFFFFF"/>
							<stop  offset="0.6851" style="stop-color:#9EDBF3"/>
						</linearGradient>
						<path style="fill:url(#SVGID_00000036209373283399005920000015736656361501461946_);" d="M28.628,69.295
							c0-1.024,2.674-0.295,2.219,0.212C30.392,70.014,28.628,69.945,28.628,69.295z"/>
						<path style="fill:#FFFFFF;" d="M29.749,69.894c-0.569,0-1.182-0.188-1.182-0.599c0-0.362,0.313-0.569,0.86-0.569
							c0.612,0,1.341,0.263,1.497,0.54c0.055,0.096,0.044,0.19-0.03,0.273C30.659,69.8,30.148,69.894,29.749,69.894z M29.428,68.83
							c-0.276,0-0.739,0.061-0.739,0.465c0,0.34,0.55,0.494,1.061,0.494c0.466,0,0.878-0.124,1.05-0.314
							c0.046-0.052,0.052-0.104,0.018-0.163C30.679,69.068,29.99,68.83,29.428,68.83z"/>
					</g>
					<g style="opacity:0.7;">
						
							<linearGradient id="SVGID_00000065782288593236684010000011121607119182351744_" gradientUnits="userSpaceOnUse" x1="11.9308" y1="90.759" x2="11.9308" y2="78.861">
							<stop  offset="0" style="stop-color:#F3FAFD"/>
							<stop  offset="0.3586" style="stop-color:#FFFFFF"/>
							<stop  offset="0.6851" style="stop-color:#9EDBF3"/>
						</linearGradient>
						<path style="fill:url(#SVGID_00000065782288593236684010000011121607119182351744_);" d="M10.651,85.416
							c-0.077-0.657,2.561-0.368,2.561,0.322C13.212,86.43,10.766,86.379,10.651,85.416z"/>
						<path style="fill:#FFFFFF;" d="M12.186,86.258c-0.743,0-1.529-0.287-1.594-0.836c-0.011-0.087,0.019-0.164,0.086-0.229
							c0.181-0.173,0.585-0.199,0.81-0.199c0.729,0,1.785,0.266,1.785,0.744C13.272,86.098,12.726,86.258,12.186,86.258z
							 M11.487,85.1c-0.349,0-0.611,0.059-0.721,0.164c-0.043,0.042-0.061,0.09-0.055,0.147c0.058,0.487,0.785,0.742,1.474,0.742
							c0.465,0,0.966-0.13,0.966-0.415C13.151,85.379,12.257,85.1,11.487,85.1z"/>
					</g>
					<g>
						
							<linearGradient id="SVGID_00000169520128137654574620000005471146943557531833_" gradientUnits="userSpaceOnUse" x1="156.1319" y1="77.5865" x2="156.1319" y2="67.8414">
							<stop  offset="0" style="stop-color:#F3FAFD"/>
							<stop  offset="0.3586" style="stop-color:#FFFFFF"/>
							<stop  offset="0.6851" style="stop-color:#9EDBF3"/>
						</linearGradient>
						<path style="fill:url(#SVGID_00000169520128137654574620000005471146943557531833_);" d="M155.108,73.323
							c0-0.459,2.047-0.642,2.047,0C157.155,73.966,155.108,74.101,155.108,73.323z"/>
						<path style="fill:#FFFFFF;" d="M156.06,73.909c-0.467,0-1.012-0.153-1.012-0.586c0-0.289,0.627-0.468,1.208-0.468
							c0.593,0,0.961,0.179,0.961,0.468C157.217,73.704,156.62,73.909,156.06,73.909z M156.256,72.96
							c-0.569,0-1.087,0.173-1.087,0.363c0,0.355,0.48,0.48,0.891,0.48c0.498,0,1.035-0.184,1.035-0.48
							C157.095,73.056,156.662,72.96,156.256,72.96z"/>
					</g>
					<g style="opacity:0.2;">
						
							<linearGradient id="SVGID_00000105417823340913145530000013493078029869980060_" gradientUnits="userSpaceOnUse" x1="64.7315" y1="77.0223" x2="64.7315" y2="53.7742">
							<stop  offset="0" style="stop-color:#F3FAFD"/>
							<stop  offset="0.3586" style="stop-color:#FFFFFF"/>
							<stop  offset="0.6851" style="stop-color:#9EDBF3"/>
						</linearGradient>
						<path style="fill:url(#SVGID_00000105417823340913145530000013493078029869980060_);" d="M60.372,66.72
							c-0.08-1.093,9.324-1.322,8.688,0.377C68.425,68.797,60.478,68.189,60.372,66.72z"/>
						<path style="fill:#FFFFFF;" d="M65.453,68.178c-2.433,0-5.079-0.585-5.143-1.455c-0.006-0.083,0.033-0.164,0.114-0.239
							c0.505-0.464,2.593-0.676,4.319-0.676c1.738,0,3.778,0.215,4.286,0.818c0.124,0.148,0.154,0.312,0.088,0.487
							C68.869,67.779,67.499,68.178,65.453,68.178z M64.744,65.913c-2.047,0-3.826,0.271-4.23,0.643
							c-0.06,0.054-0.085,0.106-0.082,0.161c0.058,0.799,2.692,1.355,5.022,1.355c1.99,0,3.318-0.37,3.55-0.99
							c0.054-0.145,0.03-0.273-0.071-0.395C68.616,66.313,67.351,65.913,64.744,65.913z"/>
					</g>
					<g style="opacity:0.1;">
						
							<linearGradient id="SVGID_00000095331080530102032610000015833955378888344755_" gradientUnits="userSpaceOnUse" x1="5.6441" y1="73.7641" x2="5.6441" y2="50.511">
							<stop  offset="0" style="stop-color:#F3FAFD"/>
							<stop  offset="0.3586" style="stop-color:#FFFFFF"/>
							<stop  offset="0.6851" style="stop-color:#9EDBF3"/>
						</linearGradient>
						<path style="fill:url(#SVGID_00000095331080530102032610000015833955378888344755_);" d="M1.284,63.459
							c-0.079-1.093,9.325-1.322,8.689,0.378C9.338,65.537,1.391,64.929,1.284,63.459z"/>
						<path style="fill:#FFFFFF;" d="M6.366,64.917c-2.433,0-5.08-0.585-5.143-1.454c-0.006-0.084,0.032-0.164,0.114-0.239
							c0.505-0.465,2.593-0.676,4.319-0.676c1.738,0,3.777,0.214,4.285,0.817c0.125,0.148,0.154,0.312,0.089,0.487
							C9.782,64.52,8.412,64.917,6.366,64.917z M5.657,62.652c-2.047,0-3.826,0.271-4.231,0.643
							c-0.059,0.055-0.085,0.107-0.081,0.161c0.058,0.799,2.692,1.356,5.022,1.356c1.99,0,3.317-0.371,3.55-0.992
							c0.054-0.144,0.03-0.273-0.071-0.394C9.529,63.053,8.264,62.652,5.657,62.652z"/>
					</g>
					<g style="opacity:0.1;">
						
							<linearGradient id="SVGID_00000028319959062006310640000009413585594135062415_" gradientUnits="userSpaceOnUse" x1="36.3677" y1="74.3637" x2="36.3677" y2="51.1116">
							<stop  offset="0" style="stop-color:#F3FAFD"/>
							<stop  offset="0.3586" style="stop-color:#FFFFFF"/>
							<stop  offset="0.6851" style="stop-color:#9EDBF3"/>
						</linearGradient>
						<path style="fill:url(#SVGID_00000028319959062006310640000009413585594135062415_);" d="M32.008,64.06
							c-0.078-1.094,9.325-1.322,8.689,0.377C40.062,66.137,32.114,65.529,32.008,64.06z"/>
						<path style="fill:#FFFFFF;" d="M37.09,65.517c-2.433,0-5.079-0.584-5.142-1.454c-0.007-0.084,0.032-0.164,0.113-0.239
							c0.505-0.464,2.593-0.676,4.319-0.676c1.738,0,3.778,0.215,4.286,0.818c0.124,0.147,0.154,0.311,0.088,0.487
							C40.506,65.119,39.136,65.517,37.09,65.517z M36.381,63.252c-2.047,0-3.826,0.271-4.23,0.644
							c-0.06,0.054-0.086,0.106-0.082,0.16c0.058,0.8,2.692,1.356,5.022,1.356c1.99,0,3.317-0.371,3.55-0.991
							c0.054-0.144,0.03-0.272-0.071-0.394C40.253,63.652,38.987,63.252,36.381,63.252z"/>
					</g>
					<g style="opacity:0.1;">
						
							<linearGradient id="SVGID_00000049199243405929168870000013380270062351879559_" gradientUnits="userSpaceOnUse" x1="99.9907" y1="71.2199" x2="99.9907" y2="47.9717">
							<stop  offset="0" style="stop-color:#F3FAFD"/>
							<stop  offset="0.3586" style="stop-color:#FFFFFF"/>
							<stop  offset="0.6851" style="stop-color:#9EDBF3"/>
						</linearGradient>
						<path style="fill:url(#SVGID_00000049199243405929168870000013380270062351879559_);" d="M95.631,60.918
							c-0.078-1.094,9.325-1.323,8.689,0.377C103.685,62.994,95.736,62.387,95.631,60.918z"/>
						<path style="fill:#FFFFFF;" d="M100.712,62.375c-2.432,0-5.079-0.584-5.142-1.454c-0.006-0.084,0.032-0.164,0.114-0.239
							c0.504-0.465,2.593-0.676,4.319-0.676c1.739,0,3.777,0.215,4.285,0.817c0.125,0.147,0.154,0.313,0.089,0.488
							C104.129,61.978,102.759,62.375,100.712,62.375z M100.004,60.11c-2.047,0-3.826,0.271-4.231,0.643
							c-0.059,0.054-0.085,0.107-0.081,0.161c0.058,0.8,2.693,1.357,5.021,1.357c1.991,0,3.318-0.371,3.552-0.991
							c0.053-0.145,0.03-0.274-0.072-0.395C103.876,60.511,102.61,60.11,100.004,60.11z"/>
					</g>
					<g style="opacity:0.1;">
						
							<linearGradient id="SVGID_00000025438622786187403840000016507425265807525513_" gradientUnits="userSpaceOnUse" x1="145.6914" y1="76.3207" x2="145.6914" y2="53.0676">
							<stop  offset="0" style="stop-color:#F3FAFD"/>
							<stop  offset="0.3586" style="stop-color:#FFFFFF"/>
							<stop  offset="0.6851" style="stop-color:#9EDBF3"/>
						</linearGradient>
						<path style="fill:url(#SVGID_00000025438622786187403840000016507425265807525513_);" d="M141.332,66.016
							c-0.078-1.093,9.324-1.322,8.688,0.378C149.385,68.094,141.438,67.485,141.332,66.016z"/>
						<path style="fill:#FFFFFF;" d="M146.413,67.474c-2.433,0-5.08-0.585-5.143-1.454c-0.006-0.084,0.032-0.165,0.114-0.239
							c0.505-0.465,2.593-0.676,4.319-0.676c1.738,0,3.778,0.214,4.285,0.817c0.125,0.148,0.154,0.312,0.089,0.487
							C149.829,67.075,148.459,67.474,146.413,67.474z M145.704,65.209c-2.047,0-3.826,0.271-4.23,0.643
							c-0.059,0.054-0.086,0.106-0.081,0.161c0.058,0.799,2.692,1.355,5.021,1.355c1.99,0,3.317-0.37,3.55-0.99
							c0.055-0.145,0.03-0.273-0.071-0.395C149.577,65.609,148.311,65.209,145.704,65.209z"/>
					</g>
					<g style="opacity:0.1;">
						
							<linearGradient id="SVGID_00000102511877558860339420000010477323559037647003_" gradientUnits="userSpaceOnUse" x1="87.793" y1="79.8617" x2="87.793" y2="56.6086">
							<stop  offset="0" style="stop-color:#F3FAFD"/>
							<stop  offset="0.3586" style="stop-color:#FFFFFF"/>
							<stop  offset="0.6851" style="stop-color:#9EDBF3"/>
						</linearGradient>
						<path style="fill:url(#SVGID_00000102511877558860339420000010477323559037647003_);" d="M83.434,69.557
							c-0.079-1.093,9.324-1.322,8.688,0.378C91.486,71.635,83.539,71.026,83.434,69.557z"/>
						<path style="fill:#FFFFFF;" d="M88.516,71.015c-2.433,0-5.08-0.584-5.143-1.454c-0.006-0.084,0.032-0.165,0.114-0.239
							c0.505-0.465,2.593-0.676,4.318-0.676c1.739,0,3.778,0.215,4.286,0.817c0.124,0.148,0.154,0.313,0.089,0.487
							C91.931,70.617,90.561,71.015,88.516,71.015z M87.806,68.75c-2.047,0-3.826,0.271-4.23,0.643
							c-0.059,0.055-0.085,0.106-0.081,0.161c0.058,0.799,2.692,1.356,5.021,1.356c1.989,0,3.317-0.371,3.55-0.991
							c0.054-0.145,0.03-0.272-0.072-0.394C91.679,69.15,90.412,68.75,87.806,68.75z"/>
					</g>
					<g style="opacity:0.1;">
						
							<linearGradient id="SVGID_00000110428942329767208840000008003746305883537797_" gradientUnits="userSpaceOnUse" x1="14.5464" y1="72.4567" x2="14.5464" y2="58.3491">
							<stop  offset="0" style="stop-color:#F3FAFD"/>
							<stop  offset="0.3586" style="stop-color:#FFFFFF"/>
							<stop  offset="0.6851" style="stop-color:#9EDBF3"/>
						</linearGradient>
						<path style="fill:url(#SVGID_00000110428942329767208840000008003746305883537797_);" d="M12.183,66.37
							c-0.055-1.097,4.667-0.715,4.728,0C16.971,67.086,12.238,67.468,12.183,66.37z"/>
						<path style="fill:#FFFFFF;" d="M14.229,67.11c-0.485,0-2.071-0.054-2.106-0.737c-0.007-0.13,0.047-0.246,0.156-0.347
							c0.382-0.344,1.332-0.396,1.864-0.396c1.159,0,2.787,0.256,2.828,0.736c0.006,0.074-0.028,0.147-0.103,0.216
							C16.5,66.925,15.233,67.11,14.229,67.11z M14.143,65.736c-0.873,0-1.521,0.132-1.776,0.363
							c-0.088,0.079-0.128,0.167-0.123,0.269c0.024,0.47,1.041,0.637,1.985,0.637c1.133,0,2.254-0.216,2.551-0.492
							c0.051-0.047,0.074-0.094,0.07-0.139C16.821,66.046,15.506,65.736,14.143,65.736z"/>
					</g>
					<g style="opacity:0.1;">
						
							<linearGradient id="SVGID_00000070113429911979889970000007418695759307570560_" gradientUnits="userSpaceOnUse" x1="0.2798" y1="75.7033" x2="0.2798" y2="50.7694">
							<stop  offset="0" style="stop-color:#F3FAFD"/>
							<stop  offset="0.3586" style="stop-color:#FFFFFF"/>
							<stop  offset="0.6851" style="stop-color:#9EDBF3"/>
						</linearGradient>
						<path style="fill:url(#SVGID_00000070113429911979889970000007418695759307570560_);" d="M-2.141,64.946
							c0-2.297,5.021-0.77,4.836,0C2.511,65.717-2.141,67.243-2.141,64.946z"/>
						<path style="fill:#FFFFFF;" d="M-0.541,66.213c-1.07,0-1.66-0.449-1.66-1.267c0-0.816,0.627-1.267,1.765-1.267
							c1.217,0,2.648,0.517,3.066,0.961c0.106,0.112,0.148,0.219,0.124,0.316C2.636,65.453,0.848,66.213-0.541,66.213z
							 M-0.437,63.785c-0.75,0-1.643,0.201-1.643,1.161c0,0.961,0.836,1.162,1.538,1.162c1.407,0,3.078-0.763,3.177-1.173
							c0.016-0.065-0.018-0.143-0.1-0.229C2.143,64.289,0.729,63.785-0.437,63.785z"/>
					</g>
					<g style="opacity:0.1;">
						
							<linearGradient id="SVGID_00000098203741231586240240000015383312130104796589_" gradientUnits="userSpaceOnUse" x1="31.8929" y1="70.152" x2="31.8929" y2="54.0382">
							<stop  offset="0" style="stop-color:#F3FAFD"/>
							<stop  offset="0.3586" style="stop-color:#FFFFFF"/>
							<stop  offset="0.6851" style="stop-color:#9EDBF3"/>
						</linearGradient>
						<path style="fill:url(#SVGID_00000098203741231586240240000015383312130104796589_);" d="M29.955,62.953
							c0.053-0.605,3.642-0.902,3.869,0.225C34.051,64.305,29.842,64.272,29.955,62.953z"/>
						<path style="fill:#FFFFFF;" d="M32.092,64.037c-0.672,0-1.54-0.141-1.964-0.535c-0.172-0.161-0.251-0.347-0.232-0.553
							c0.031-0.362,1.055-0.586,1.986-0.586c1.151,0,1.9,0.301,2.002,0.806c0.032,0.158-0.015,0.303-0.137,0.429
							C33.483,63.869,32.85,64.037,32.092,64.037z M31.882,62.468c-0.954,0-1.844,0.233-1.866,0.489
							c-0.015,0.176,0.053,0.335,0.201,0.474c0.328,0.305,1.063,0.502,1.875,0.502c0.723,0,1.321-0.154,1.563-0.402
							c0.099-0.101,0.136-0.217,0.109-0.344C33.657,62.656,32.722,62.468,31.882,62.468z"/>
					</g>
					<g style="opacity:0.1;">
						
							<linearGradient id="SVGID_00000050645383114342105720000016732273744992061318_" gradientUnits="userSpaceOnUse" x1="91.9207" y1="72.0085" x2="91.9207" y2="58.7505">
							<stop  offset="0" style="stop-color:#F3FAFD"/>
							<stop  offset="0.3586" style="stop-color:#FFFFFF"/>
							<stop  offset="0.6851" style="stop-color:#9EDBF3"/>
						</linearGradient>
						<path style="fill:url(#SVGID_00000050645383114342105720000016732273744992061318_);" d="M90.294,66.238
							c0.086-0.776,2.987-0.811,3.243,0C93.793,67.049,90.181,67.277,90.294,66.238z"/>
						<path style="fill:#FFFFFF;" d="M91.813,66.986c-0.664,0-1.185-0.131-1.427-0.361c-0.117-0.111-0.168-0.243-0.152-0.392
							c0.049-0.441,0.886-0.643,1.643-0.643c0.756,0,1.581,0.195,1.719,0.634c0.036,0.112,0.01,0.219-0.077,0.317
							C93.247,66.848,92.444,66.986,91.813,66.986z M91.876,65.695c-0.727,0-1.482,0.188-1.521,0.548
							c-0.013,0.117,0.027,0.223,0.121,0.312c0.216,0.205,0.716,0.327,1.337,0.327c0.726,0,1.402-0.17,1.609-0.404
							c0.063-0.071,0.081-0.146,0.057-0.226C93.357,65.87,92.563,65.695,91.876,65.695z"/>
					</g>
					<g style="opacity:0.1;">
						
							<linearGradient id="SVGID_00000096746156757972289860000014531661862526692541_" gradientUnits="userSpaceOnUse" x1="121.8147" y1="71.2109" x2="121.8147" y2="52.7115">
							<stop  offset="0" style="stop-color:#F3FAFD"/>
							<stop  offset="0.3586" style="stop-color:#FFFFFF"/>
							<stop  offset="0.6851" style="stop-color:#9EDBF3"/>
						</linearGradient>
						<path style="fill:url(#SVGID_00000096746156757972289860000014531661862526692541_);" d="M119.591,63.178
							c-0.123-0.81,4.153-1.414,4.438,0C124.313,64.592,119.762,64.297,119.591,63.178z"/>
						<path style="fill:#FFFFFF;" d="M122.174,64.183c-1.225,0-2.548-0.373-2.644-0.998c-0.016-0.102,0.027-0.204,0.126-0.302
							c0.345-0.34,1.409-0.607,2.423-0.607c1.163,0,1.896,0.325,2.01,0.893c0.042,0.21-0.014,0.395-0.164,0.549
							C123.637,64.014,122.998,64.183,122.174,64.183z M122.079,62.382c-0.982,0-2.007,0.25-2.332,0.57
							c-0.074,0.073-0.106,0.147-0.096,0.219c0.085,0.561,1.376,0.907,2.522,0.907c0.778,0,1.397-0.16,1.658-0.428
							c0.126-0.13,0.172-0.286,0.137-0.464C123.822,62.46,122.599,62.382,122.079,62.382z"/>
					</g>
					<g style="opacity:0.1;">
						
							<linearGradient id="SVGID_00000013898973051754632060000009197521731476032133_" gradientUnits="userSpaceOnUse" x1="158.6392" y1="70.9585" x2="158.6392" y2="55.5449">
							<stop  offset="0" style="stop-color:#F3FAFD"/>
							<stop  offset="0.3586" style="stop-color:#FFFFFF"/>
							<stop  offset="0.6851" style="stop-color:#9EDBF3"/>
						</linearGradient>
						<path style="fill:url(#SVGID_00000013898973051754632060000009197521731476032133_);" d="M156.625,64.131
							c0.213-1.094,3.73-0.4,4.027,0.258C160.948,65.048,156.341,65.595,156.625,64.131z"/>
						<path style="fill:#FFFFFF;" d="M158.43,65.112c-0.477,0-1.33-0.057-1.703-0.438c-0.149-0.152-0.203-0.338-0.161-0.552
							c0.076-0.397,0.564-0.616,1.372-0.616c1.05,0,2.564,0.407,2.77,0.864c0.033,0.072,0.021,0.148-0.035,0.219
							C160.416,64.912,159.309,65.112,158.43,65.112z M157.938,63.61c-0.429,0-1.163,0.069-1.253,0.529
							c-0.035,0.183,0.01,0.339,0.135,0.466c0.249,0.256,0.836,0.401,1.61,0.401c0.939,0,1.941-0.223,2.143-0.477
							c0.034-0.043,0.041-0.082,0.022-0.122C160.424,64.027,159.032,63.61,157.938,63.61z"/>
					</g>
					<g style="opacity:0.2;">
						
							<linearGradient id="SVGID_00000021119355152833272810000001724540673404223639_" gradientUnits="userSpaceOnUse" x1="117.1452" y1="88.0838" x2="117.1452" y2="72.8639">
							<stop  offset="0" style="stop-color:#F3FAFD"/>
							<stop  offset="0.3586" style="stop-color:#FFFFFF"/>
							<stop  offset="0.6851" style="stop-color:#9EDBF3"/>
						</linearGradient>
						<path style="fill:url(#SVGID_00000021119355152833272810000001724540673404223639_);" d="M114.927,81.489
							c0.05-1.103,4.438-0.785,4.438,0C119.364,82.274,114.869,82.731,114.927,81.489z"/>
						<path style="fill:#FFFFFF;" d="M116.762,82.312c-0.472,0-1.321-0.052-1.707-0.398c-0.133-0.12-0.196-0.263-0.19-0.426
							c0.023-0.478,0.779-0.763,2.027-0.763c1.217,0,2.532,0.292,2.532,0.765C119.425,81.974,118.021,82.312,116.762,82.312z
							 M116.893,80.829c-0.907,0-1.884,0.174-1.905,0.663c-0.007,0.133,0.046,0.25,0.154,0.348c0.259,0.233,0.851,0.366,1.62,0.366
							c0.595,0,1.245-0.081,1.74-0.219c0.509-0.141,0.801-0.322,0.801-0.498C119.303,81.144,118.153,80.829,116.893,80.829z"/>
					</g>
					<g style="opacity:0.2;">
						
							<linearGradient id="SVGID_00000042726363047534138580000005109391983171059359_" gradientUnits="userSpaceOnUse" x1="171.465" y1="69.8369" x2="171.465" y2="50.1611">
							<stop  offset="0" style="stop-color:#F3FAFD"/>
							<stop  offset="0.3586" style="stop-color:#FFFFFF"/>
							<stop  offset="0.6851" style="stop-color:#9EDBF3"/>
						</linearGradient>
						<path style="fill:url(#SVGID_00000042726363047534138580000005109391983171059359_);" d="M168.686,61.096
							c-0.021-0.811,5.689-1.148,5.557,0.236C174.107,62.717,168.724,62.615,168.686,61.096z"/>
						<path style="fill:#FFFFFF;" d="M171.665,62.359c-1.495,0-3.02-0.434-3.041-1.263c-0.001-0.077,0.038-0.152,0.117-0.223
							c0.399-0.352,1.741-0.536,2.861-0.536c0.581,0,1.989,0.053,2.513,0.545c0.141,0.132,0.204,0.284,0.186,0.454
							C174.234,62.043,172.929,62.359,171.665,62.359z M171.602,60.442c-1.256,0-2.449,0.217-2.774,0.505
							c-0.057,0.05-0.084,0.099-0.083,0.147c0.02,0.762,1.483,1.16,2.92,1.16c1.169,0,2.455-0.291,2.517-0.927
							c0.013-0.14-0.039-0.266-0.155-0.375C173.686,60.633,172.779,60.442,171.602,60.442z"/>
					</g>
				</g>
			</g>
		</g>
	</g>
</g>
</svg>
